<?xml version="1.0" standalone="no"?>
<svg id="pattern_06" width="1200" height="694" viewBox="0 0 1200 694" fill="none" xmlns="http://www.w3.org/2000/svg" style="max-width: 100%; max-height: 100%;">
<g clip-path="url(#clip0_230_3897)">
<rect width="1200" height="693.571" fill="#221E1E" stroke-dasharray="0,0,0,0,0,3787.14208984375"><animate attributeType="XML" attributeName="stroke-dasharray" repeatCount="indefinite" dur="5.340140802217273s" values="0,0,0,0,0,3787.14208984375; 0,0,0,2688.870883789062,1098.2712060546874,0; 0,0,549.1356030273437,3238.0064868164063,0,0; 0,1893.571044921875,0,1893.571044921875,0,0" keyTimes="0; 0.5; 0.645; 1"></animate></rect>
<path d="M42.1191 51.6688H43.6844L43.4291 49.2414L42.1191 51.6688ZM43.0147 47.8309H44.4712L45.3459 54H43.948L43.8183 52.7319H41.5457L40.8509 54H39.5033L43.0147 47.8309ZM48.5016 48.9023L48.15 50.5597H49.6107C49.9009 50.5597 50.1255 50.5262 50.2845 50.4593C50.5663 50.3421 50.7449 50.1105 50.8202 49.7645C50.8984 49.3906 50.8272 49.1395 50.6068 49.0112C50.4812 48.9386 50.2789 48.9023 49.9999 48.9023H48.5016ZM51.9628 48.421C52.0633 48.5773 52.1316 48.7503 52.1679 48.94C52.207 49.1297 52.2014 49.346 52.1512 49.5887C52.087 49.8817 51.9503 50.1705 51.741 50.4551C51.5345 50.7369 51.2485 50.9364 50.883 51.0536C51.1425 51.168 51.3085 51.3312 51.3811 51.5432C51.4564 51.7525 51.448 52.0734 51.356 52.5059L51.2681 52.9202C51.2095 53.202 51.1802 53.3931 51.1802 53.4936C51.1802 53.6526 51.2332 53.7698 51.3392 53.8451L51.3099 54H49.8911C49.88 53.8633 49.8744 53.7531 49.8744 53.6694C49.8772 53.4964 49.8967 53.3192 49.933 53.1378L50.046 52.5645C50.1241 52.171 50.1074 51.9088 49.9957 51.7776C49.8869 51.6465 49.6428 51.5809 49.2633 51.5809H47.9324L47.4218 54H46.162L47.472 47.8309H50.498C50.9277 47.8393 51.2485 47.8923 51.4606 47.99C51.6726 48.0876 51.8401 48.2313 51.9628 48.421ZM58.1193 47.8309L57.885 48.9233H56.0393L54.9637 54H53.6662L54.7418 48.9233H52.8878L53.1221 47.8309H58.1193Z" fill="white" stroke-dasharray="0,0,0,0,0,86.62615203857422"><animate attributeType="XML" attributeName="stroke-dasharray" repeatCount="indefinite" dur="5.349474531528323s" values="0,0,0,0,0,86.62615203857422; 0,0,0,61.50456794738769,25.12158409118652,0; 0,0,12.56079204559326,74.06535999298096,0,0; 0,43.31307601928711,0,43.31307601928711,0,0" keyTimes="0; 0.5; 0.645; 1"></animate></path>
<rect x="62.8569" y="45" width="0.714286" height="12.1429" fill="white" stroke-dasharray="0,0,0,0,0,25.714370727539062"><animate attributeType="XML" attributeName="stroke-dasharray" repeatCount="indefinite" dur="5.355438671704421s" values="0,0,0,0,0,25.714370727539062; 0,0,0,18.257203216552732,7.457167510986328,0; 0,0,3.728583755493164,21.985786972045897,0,0; 0,12.857185363769531,0,12.857185363769531,0,0" keyTimes="0; 0.5; 0.645; 1"></animate></rect>
<path d="M69.9542 54V47.8286H72.2085C72.6085 47.8286 72.9371 47.8743 73.1942 47.9657C73.4571 48.0571 73.6628 48.1829 73.8114 48.3429C73.9656 48.5029 74.0714 48.6886 74.1285 48.9C74.1914 49.1057 74.2228 49.3229 74.2228 49.5514C74.2228 49.8943 74.1514 50.1771 74.0085 50.4C73.8714 50.6229 73.6914 50.8 73.4685 50.9314C73.2456 51.0571 72.9914 51.1457 72.7056 51.1971C72.4256 51.2486 72.1428 51.2743 71.8571 51.2743H70.5371V54H69.9542ZM71.8742 50.7771C72.1485 50.7771 72.3942 50.76 72.6114 50.7257C72.8285 50.6914 73.0114 50.6286 73.1599 50.5371C73.3142 50.44 73.4314 50.3114 73.5114 50.1514C73.5971 49.9857 73.6399 49.7714 73.6399 49.5086C73.6399 49.12 73.5114 48.8257 73.2542 48.6257C73.0028 48.4257 72.5999 48.3257 72.0456 48.3257H70.5371V50.7771H71.8742ZM74.018 54L76.4437 47.8286H77.1037L79.4694 54H78.8694L78.158 52.0629H75.3466L74.618 54H74.018ZM75.5437 51.5657H77.9609L76.7523 48.3257L75.5437 51.5657ZM78.9568 47.8286H83.4483V48.3257H81.494V54H80.9111V48.3257H78.9568V47.8286ZM83.7197 47.8286H88.2111V48.3257H86.2568V54H85.6739V48.3257H83.7197V47.8286ZM89.0396 54V47.8286H93.1454V48.3257H89.6225V50.5543H92.8025V51.0514H89.6225V53.5029H93.2311V54H89.0396ZM96.671 50.7C96.8882 50.7 97.0882 50.6771 97.271 50.6314C97.4596 50.5857 97.6225 50.5143 97.7596 50.4171C97.8967 50.3143 98.0053 50.1857 98.0853 50.0314C98.1653 49.8771 98.2053 49.6914 98.2053 49.4743C98.2053 49.2457 98.1625 49.0571 98.0767 48.9086C97.9967 48.76 97.8853 48.6429 97.7425 48.5571C97.6053 48.4714 97.4453 48.4114 97.2625 48.3771C97.0853 48.3429 96.8996 48.3257 96.7053 48.3257H94.8539V50.7H96.671ZM94.8539 51.1971V54H94.271V47.8286H96.6882C97.3682 47.8286 97.8882 47.9571 98.2482 48.2143C98.6082 48.4657 98.7882 48.8771 98.7882 49.4486C98.7882 49.8371 98.7082 50.1457 98.5482 50.3743C98.3939 50.6029 98.1396 50.7971 97.7853 50.9571C97.9682 51.02 98.111 51.1114 98.2139 51.2314C98.3167 51.3514 98.3939 51.4886 98.4453 51.6429C98.4967 51.7971 98.5282 51.96 98.5396 52.1314C98.5567 52.3029 98.5682 52.4686 98.5739 52.6286C98.5796 52.8629 98.5882 53.0571 98.5996 53.2114C98.6167 53.3657 98.6339 53.4914 98.651 53.5886C98.6739 53.6857 98.6996 53.7629 98.7282 53.82C98.7567 53.8714 98.791 53.9114 98.831 53.94V54H98.1882C98.1253 53.8971 98.0796 53.7543 98.051 53.5714C98.0282 53.3886 98.0082 53.1971 97.991 52.9971C97.9796 52.7971 97.9682 52.6029 97.9567 52.4143C97.951 52.2257 97.9367 52.0714 97.9139 51.9514C97.8796 51.7857 97.8225 51.6543 97.7425 51.5571C97.6682 51.4543 97.5767 51.3771 97.4682 51.3257C97.3596 51.2743 97.2367 51.24 97.0996 51.2229C96.9682 51.2057 96.831 51.1971 96.6882 51.1971H94.8539ZM100.58 48.6171H100.562V54H99.9795V47.8286H100.64L104.205 53.22H104.222V47.8286H104.805V54H104.128L100.58 48.6171Z" fill="white" stroke-dasharray="0,0,0,0,0,213.1597900390625"><animate attributeType="XML" attributeName="stroke-dasharray" repeatCount="indefinite" dur="5.550929911886198s" values="0,0,0,0,0,213.1597900390625; 0,0,0,151.34345092773438,61.81633911132812,0; 0,0,30.90816955566406,182.25162048339843,0,0; 0,106.57989501953125,0,106.57989501953125,0,0" keyTimes="0; 0.5; 0.645; 1"></animate></path>
<path d="M1054.28 48.3395H1055.18V54.2065H1058.55V55H1054.28V48.3395ZM1062.32 48.1581C1063.5 48.1581 1064.37 48.536 1064.93 49.2916C1065.37 49.8811 1065.6 50.6352 1065.6 51.5541C1065.6 52.5486 1065.34 53.3753 1064.84 54.0342C1064.25 54.8081 1063.4 55.195 1062.3 55.195C1061.28 55.195 1060.47 54.8564 1059.89 54.1793C1059.36 53.5264 1059.1 52.7012 1059.1 51.7038C1059.1 50.803 1059.33 50.0322 1059.77 49.3914C1060.35 48.5692 1061.2 48.1581 1062.32 48.1581ZM1062.41 54.3879C1063.21 54.3879 1063.78 54.1038 1064.14 53.5355C1064.49 52.9642 1064.67 52.3083 1064.67 51.5677C1064.67 50.7849 1064.47 50.1546 1064.05 49.677C1063.65 49.1995 1063.09 48.9607 1062.38 48.9607C1061.69 48.9607 1061.12 49.1979 1060.69 49.6725C1060.25 50.144 1060.04 50.8408 1060.04 51.7627C1060.04 52.5002 1060.22 53.1229 1060.59 53.6307C1060.97 54.1355 1061.58 54.3879 1062.41 54.3879ZM1069.55 48.1672C1070.18 48.1672 1070.72 48.2881 1071.18 48.5299C1071.84 48.8775 1072.24 49.4866 1072.39 50.3571H1071.5C1071.39 49.8705 1071.16 49.5168 1070.82 49.2962C1070.48 49.0725 1070.05 48.9607 1069.53 48.9607C1068.91 48.9607 1068.39 49.1919 1067.97 49.6544C1067.55 50.1168 1067.34 50.806 1067.34 51.7219C1067.34 52.5138 1067.51 53.1592 1067.86 53.6579C1068.21 54.1536 1068.78 54.4015 1069.56 54.4015C1070.16 54.4015 1070.66 54.2277 1071.05 53.8801C1071.45 53.5295 1071.65 52.9642 1071.66 52.1844H1069.58V51.4362H1072.5V55H1071.92L1071.7 54.1431C1071.4 54.4786 1071.13 54.7113 1070.89 54.8413C1070.5 55.065 1069.99 55.1768 1069.38 55.1768C1068.59 55.1768 1067.91 54.9214 1067.35 54.4106C1066.73 53.7698 1066.42 52.8902 1066.42 51.7718C1066.42 50.6564 1066.72 49.7692 1067.32 49.1103C1067.9 48.4816 1068.64 48.1672 1069.55 48.1672ZM1076.69 48.3395H1077.6V55H1076.69V48.3395ZM1079.07 48.3395H1080.14L1083.5 53.735V48.3395H1084.36V55H1083.35L1079.93 49.609V55H1079.07V48.3395Z" fill="white" stroke-dasharray="0,0,0,0,0,158.26907348632812"><animate attributeType="XML" attributeName="stroke-dasharray" repeatCount="indefinite" dur="5.555141577263575s" values="0,0,0,0,0,158.26907348632812; 0,0,0,112.37104217529296,45.898031311035155,0; 0,0,22.949015655517577,135.32005783081055,0,0; 0,79.13453674316406,0,79.13453674316406,0,0" keyTimes="0; 0.5; 0.645; 1"></animate></path>
<path d="M1115.58 52.8509C1115.6 53.2287 1115.69 53.5355 1115.85 53.7713C1116.15 54.2126 1116.68 54.4332 1117.43 54.4332C1117.77 54.4332 1118.08 54.3849 1118.36 54.2882C1118.9 54.1007 1119.16 53.7652 1119.16 53.2816C1119.16 52.9189 1119.05 52.6604 1118.82 52.5063C1118.59 52.3551 1118.23 52.2237 1117.75 52.1118L1116.84 51.9078C1116.25 51.7748 1115.84 51.6282 1115.59 51.468C1115.17 51.1899 1114.96 50.7743 1114.96 50.2211C1114.96 49.6226 1115.16 49.1314 1115.58 48.7476C1115.99 48.3637 1116.58 48.1717 1117.34 48.1717C1118.04 48.1717 1118.63 48.341 1119.11 48.6795C1119.6 49.0151 1119.85 49.5531 1119.85 50.2937H1119C1118.96 49.937 1118.86 49.6634 1118.71 49.473C1118.44 49.1254 1117.97 48.9516 1117.31 48.9516C1116.78 48.9516 1116.4 49.0634 1116.16 49.2871C1115.93 49.5108 1115.81 49.7707 1115.81 50.067C1115.81 50.3934 1115.95 50.6322 1116.22 50.7833C1116.4 50.8801 1116.8 51.001 1117.43 51.1461L1118.37 51.3592C1118.82 51.4619 1119.16 51.6025 1119.41 51.7808C1119.83 52.0922 1120.04 52.5441 1120.04 53.1365C1120.04 53.874 1119.77 54.4015 1119.24 54.7189C1118.7 55.0363 1118.08 55.195 1117.37 55.195C1116.54 55.195 1115.89 54.9834 1115.42 54.5602C1114.96 54.14 1114.73 53.5703 1114.73 52.8509H1115.58ZM1121.39 48.3395H1122.3V55H1121.39V48.3395ZM1126.65 48.1672C1127.28 48.1672 1127.82 48.2881 1128.27 48.5299C1128.94 48.8775 1129.34 49.4866 1129.49 50.3571H1128.6C1128.49 49.8705 1128.26 49.5168 1127.92 49.2962C1127.58 49.0725 1127.15 48.9607 1126.63 48.9607C1126.01 48.9607 1125.49 49.1919 1125.07 49.6544C1124.65 50.1168 1124.44 50.806 1124.44 51.7219C1124.44 52.5138 1124.61 53.1592 1124.96 53.6579C1125.31 54.1536 1125.87 54.4015 1126.66 54.4015C1127.26 54.4015 1127.76 54.2277 1128.15 53.8801C1128.55 53.5295 1128.75 52.9642 1128.76 52.1844H1126.67V51.4362H1129.6V55H1129.02L1128.8 54.1431C1128.49 54.4786 1128.22 54.7113 1127.99 54.8413C1127.59 55.065 1127.09 55.1768 1126.48 55.1768C1125.69 55.1768 1125.01 54.9214 1124.44 54.4106C1123.82 53.7698 1123.51 52.8902 1123.51 51.7718C1123.51 50.6564 1123.81 49.7692 1124.42 49.1103C1124.99 48.4816 1125.74 48.1672 1126.65 48.1672ZM1131 48.3395H1132.06L1135.43 53.735V48.3395H1136.28V55H1135.27L1131.86 49.609V55H1131V48.3395ZM1140.5 48.3395H1141.41V55H1140.5V48.3395ZM1142.88 48.3395H1143.94L1147.31 53.735V48.3395H1148.16V55H1147.15L1143.74 49.609V55H1142.88V48.3395Z" fill="white" stroke-dasharray="0,0,0,0,0,192.31585693359375"><animate attributeType="XML" attributeName="stroke-dasharray" repeatCount="indefinite" dur="5.300990279101065s" values="0,0,0,0,0,192.31585693359375; 0,0,0,136.54425842285156,55.77159851074218,0; 0,0,27.88579925537109,164.43005767822265,0,0; 0,96.15792846679688,0,96.15792846679688,0,0" keyTimes="0; 0.5; 0.645; 1"></animate></path>
<path d="M51.399 639.054H52.6912L54.6046 644.685L56.5043 639.054H57.7829V645.714H56.926V641.783C56.926 641.647 56.929 641.422 56.9351 641.108C56.9411 640.793 56.9441 640.456 56.9441 640.097L55.0444 645.714H54.1512L52.2378 640.097V640.301C52.2378 640.464 52.2408 640.713 52.2469 641.049C52.2559 641.381 52.2605 641.626 52.2605 641.783V645.714H51.399V639.054ZM59.2429 639.054H64.0988V639.87H60.1225V641.892H63.7996V642.663H60.1225V644.921H64.1669V645.714H59.2429V639.054ZM65.3502 639.054H66.4157L69.78 644.449V639.054H70.6369V645.714H69.6258L66.2117 640.323V645.714H65.3502V639.054ZM73.04 639.054V643.171C73.04 643.654 73.1306 644.056 73.312 644.377C73.581 644.86 74.0344 645.102 74.6722 645.102C75.437 645.102 75.9569 644.841 76.2319 644.318C76.38 644.034 76.4541 643.651 76.4541 643.171V639.054H77.37V642.794C77.37 643.614 77.2596 644.244 77.039 644.685C76.634 645.489 75.8692 645.891 74.7448 645.891C73.6203 645.891 72.8571 645.489 72.4551 644.685C72.2344 644.244 72.1241 643.614 72.1241 642.794V639.054H73.04ZM81.5594 639.054H82.4708V645.714H81.5594V639.054ZM88.7867 639.054V639.847H86.5423V645.714H85.6265V639.847H83.3821V639.054H88.7867ZM89.7026 639.054H94.5585V639.87H90.5822V641.892H94.2593V642.663H90.5822V644.921H94.6265V645.714H89.7026V639.054ZM95.7872 639.054H97.0794L98.9928 644.685L100.893 639.054H102.171V645.714H101.314V641.783C101.314 641.647 101.317 641.422 101.323 641.108C101.329 640.793 101.332 640.456 101.332 640.097L99.4326 645.714H98.5394L96.626 640.097V640.301C96.626 640.464 96.6291 640.713 96.6351 641.049C96.6442 641.381 96.6487 641.626 96.6487 641.783V645.714H95.7872V639.054Z" fill="white" stroke-dasharray="0,0,0,0,0,296.6419677734375"><animate attributeType="XML" attributeName="stroke-dasharray" repeatCount="indefinite" dur="5.445997332376648s" values="0,0,0,0,0,296.6419677734375; 0,0,0,210.6157971191406,86.02617065429686,0; 0,0,43.01308532714843,253.62888244628905,0,0; 0,148.32098388671875,0,148.32098388671875,0,0" keyTimes="0; 0.5; 0.645; 1"></animate></path>
<path d="M130.936 639.054H135.556V639.87H131.838V641.892H135.107V642.686H131.838V645.714H130.936V639.054ZM136.731 639.054H137.642V645.714H136.731V639.054ZM142.208 642.105C142.631 642.105 142.965 642.021 143.21 641.851C143.458 641.682 143.581 641.377 143.581 640.935C143.581 640.461 143.409 640.137 143.065 639.965C142.88 639.875 142.634 639.829 142.326 639.829H140.122V642.105H142.208ZM139.22 639.054H142.303C142.811 639.054 143.229 639.128 143.559 639.276C144.184 639.56 144.497 640.085 144.497 640.849C144.497 641.248 144.414 641.575 144.248 641.829C144.085 642.083 143.855 642.287 143.559 642.441C143.819 642.547 144.014 642.686 144.144 642.858C144.277 643.03 144.351 643.31 144.366 643.697L144.398 644.59C144.407 644.844 144.428 645.033 144.461 645.157C144.515 645.368 144.612 645.504 144.751 645.565V645.714H143.645C143.615 645.657 143.591 645.583 143.572 645.492C143.554 645.402 143.539 645.226 143.527 644.966L143.473 643.855C143.451 643.42 143.29 643.128 142.988 642.98C142.815 642.899 142.545 642.858 142.176 642.858H140.122V645.714H139.22V639.054ZM146.411 643.565C146.432 643.943 146.521 644.25 146.678 644.486C146.977 644.927 147.505 645.148 148.261 645.148C148.599 645.148 148.907 645.099 149.186 645.003C149.724 644.815 149.993 644.48 149.993 643.996C149.993 643.633 149.879 643.375 149.653 643.221C149.423 643.069 149.063 642.938 148.573 642.826L147.671 642.622C147.082 642.489 146.665 642.343 146.42 642.182C145.997 641.904 145.785 641.489 145.785 640.935C145.785 640.337 145.992 639.846 146.406 639.462C146.82 639.078 147.407 638.886 148.165 638.886C148.864 638.886 149.456 639.055 149.943 639.394C150.432 639.729 150.677 640.267 150.677 641.008H149.829C149.784 640.651 149.687 640.378 149.539 640.187C149.264 639.84 148.797 639.666 148.138 639.666C147.606 639.666 147.224 639.778 146.991 640.001C146.758 640.225 146.642 640.485 146.642 640.781C146.642 641.108 146.778 641.347 147.05 641.498C147.228 641.594 147.632 641.715 148.261 641.86L149.195 642.074C149.645 642.176 149.993 642.317 150.237 642.495C150.661 642.807 150.872 643.258 150.872 643.851C150.872 644.588 150.603 645.116 150.065 645.433C149.53 645.751 148.907 645.909 148.197 645.909C147.369 645.909 146.721 645.698 146.252 645.275C145.784 644.854 145.554 644.285 145.563 643.565H146.411ZM156.862 639.054V639.847H154.617V645.714H153.701V639.847H151.457V639.054H156.862ZM160.199 639.054H163.196C163.788 639.054 164.266 639.222 164.628 639.557C164.991 639.89 165.173 640.358 165.173 640.963C165.173 641.483 165.011 641.936 164.687 642.323C164.364 642.707 163.867 642.899 163.196 642.899H161.101V645.714H160.199V639.054ZM164.261 640.967C164.261 640.478 164.08 640.145 163.717 639.97C163.518 639.876 163.244 639.829 162.896 639.829H161.101V642.137H162.896C163.302 642.137 163.629 642.051 163.88 641.879C164.134 641.706 164.261 641.402 164.261 640.967ZM169.181 638.872C170.356 638.872 171.227 639.25 171.792 640.006C172.234 640.595 172.454 641.35 172.454 642.268C172.454 643.263 172.202 644.09 171.697 644.749C171.105 645.522 170.26 645.909 169.163 645.909C168.138 645.909 167.332 645.571 166.746 644.894C166.223 644.241 165.961 643.416 165.961 642.418C165.961 641.517 166.185 640.747 166.633 640.106C167.207 639.284 168.056 638.872 169.181 638.872ZM169.271 645.102C170.066 645.102 170.641 644.818 170.994 644.25C171.351 643.679 171.529 643.023 171.529 642.282C171.529 641.499 171.324 640.869 170.913 640.391C170.505 639.914 169.945 639.675 169.235 639.675C168.546 639.675 167.984 639.912 167.548 640.387C167.113 640.858 166.896 641.555 166.896 642.477C166.896 643.215 167.081 643.837 167.453 644.345C167.828 644.85 168.434 645.102 169.271 645.102ZM173.737 639.054H174.649V645.714H173.737V639.054ZM176.118 639.054H177.183L180.548 644.449V639.054H181.404V645.714H180.393L176.979 640.323V645.714H176.118V639.054ZM187.675 639.054V639.847H185.431V645.714H184.515V639.847H182.27V639.054H187.675Z" fill="white" stroke-dasharray="0,0,0,0,0,295.6830139160156"><animate attributeType="XML" attributeName="stroke-dasharray" repeatCount="indefinite" dur="5.496560510009866s" values="0,0,0,0,0,295.6830139160156; 0,0,0,209.93493988037108,85.74807403564452,0; 0,0,42.87403701782226,252.80897689819335,0,0; 0,147.8415069580078,0,147.8415069580078,0,0" keyTimes="0; 0.5; 0.645; 1"></animate></path>
<path d="M208.697 639.054V639.847H206.452V645.714H205.537V639.847H203.292V639.054H208.697ZM209.731 639.054H210.642V645.714H209.731V639.054ZM216.958 639.054V639.847H214.713V645.714H213.798V639.847H211.553V639.054H216.958ZM217.788 639.054H218.69V644.921H222.063V645.714H217.788V639.054ZM223.042 639.054H227.898V639.87H223.922V641.892H227.599V642.663H223.922V644.921H227.966V645.714H223.042V639.054Z" fill="white" stroke-dasharray="0,0,0,0,0,123.7457275390625"><animate attributeType="XML" attributeName="stroke-dasharray" repeatCount="indefinite" dur="5.382326417471537s" values="0,0,0,0,0,123.7457275390625; 0,0,0,87.85946655273438,35.886260986328125,0; 0,0,17.943130493164062,105.80259704589844,0,0; 0,61.87286376953125,0,61.87286376953125,0,0" keyTimes="0; 0.5; 0.645; 1"></animate></path>
<path d="M244.873 639.054H245.784V641.806H249.248V639.054H250.159V645.714H249.248V642.599H245.784V645.714H244.873V639.054ZM252.54 639.054V643.171C252.54 643.654 252.63 644.056 252.812 644.377C253.081 644.86 253.534 645.102 254.172 645.102C254.937 645.102 255.457 644.841 255.732 644.318C255.88 644.034 255.954 643.651 255.954 643.171V639.054H256.87V642.794C256.87 643.614 256.759 644.244 256.539 644.685C256.134 645.489 255.369 645.891 254.244 645.891C253.12 645.891 252.357 645.489 251.955 644.685C251.734 644.244 251.624 643.614 251.624 642.794V639.054H252.54ZM258.475 639.054H259.386V645.714H258.475V639.054ZM261.426 645.714H260.338L262.723 642.3L260.488 639.054H261.617L263.317 641.602L265.004 639.054H266.078L263.843 642.3L266.187 645.714H265.067L263.272 642.976L261.426 645.714Z" fill="white" stroke-dasharray="0,0,0,0,0,116.8629150390625"><animate attributeType="XML" attributeName="stroke-dasharray" repeatCount="indefinite" dur="5.464656287513815s" values="0,0,0,0,0,116.8629150390625; 0,0,0,82.97266967773437,33.89024536132812,0; 0,0,16.94512268066406,99.91779235839843,0,0; 0,58.43145751953125,0,58.43145751953125,0,0" keyTimes="0; 0.5; 0.645; 1"></animate></path>
<path d="M283.439 643.565C283.46 643.943 283.55 644.25 283.707 644.486C284.006 644.927 284.534 645.148 285.289 645.148C285.628 645.148 285.936 645.099 286.214 645.003C286.752 644.815 287.021 644.48 287.021 643.996C287.021 643.633 286.908 643.375 286.681 643.221C286.451 643.069 286.092 642.938 285.602 642.826L284.7 642.622C284.11 642.489 283.693 642.343 283.448 642.182C283.025 641.904 282.814 641.489 282.814 640.935C282.814 640.337 283.021 639.846 283.435 639.462C283.849 639.078 284.435 638.886 285.194 638.886C285.892 638.886 286.485 639.055 286.971 639.394C287.461 639.729 287.706 640.267 287.706 641.008H286.858C286.813 640.651 286.716 640.378 286.568 640.187C286.293 639.84 285.826 639.666 285.167 639.666C284.635 639.666 284.252 639.778 284.02 640.001C283.787 640.225 283.671 640.485 283.671 640.781C283.671 641.108 283.807 641.347 284.079 641.498C284.257 641.594 284.66 641.715 285.289 641.86L286.223 642.074C286.674 642.176 287.021 642.317 287.266 642.495C287.689 642.807 287.901 643.258 287.901 643.851C287.901 644.588 287.632 645.116 287.094 645.433C286.559 645.751 285.936 645.909 285.226 645.909C284.398 645.909 283.749 645.698 283.281 645.275C282.812 644.854 282.582 644.285 282.591 643.565H283.439ZM293.89 639.054V639.847H291.646V645.714H290.73V639.847H288.486V639.054H293.89ZM297.449 642.985L296.438 640.042L295.364 642.985H297.449ZM295.967 639.054H296.987L299.404 645.714H298.415L297.74 643.719H295.105L294.384 645.714H293.46L295.967 639.054ZM304.382 639.054V639.847H302.138V645.714H301.222V639.847H298.977V639.054H304.382ZM305.298 639.054H310.154V639.87H306.178V641.892H309.855V642.663H306.178V644.921H310.222V645.714H305.298V639.054ZM311.383 639.054H312.675L314.588 644.685L316.488 639.054H317.767V645.714H316.91V641.783C316.91 641.647 316.913 641.422 316.919 641.108C316.925 640.793 316.928 640.456 316.928 640.097L315.028 645.714H314.135L312.221 640.097V640.301C312.221 640.464 312.224 640.713 312.23 641.049C312.24 641.381 312.244 641.626 312.244 641.783V645.714H311.383V639.054ZM319.226 639.054H324.082V639.87H320.106V641.892H323.783V642.663H320.106V644.921H324.15V645.714H319.226V639.054ZM325.334 639.054H326.399L329.764 644.449V639.054H330.621V645.714H329.609L326.195 640.323V645.714H325.334V639.054ZM336.891 639.054V639.847H334.647V645.714H333.731V639.847H331.487V639.054H336.891Z" fill="white" stroke-dasharray="0,0,0,0,0,313.7425842285156"><animate attributeType="XML" attributeName="stroke-dasharray" repeatCount="indefinite" dur="5.325445165386374s" values="0,0,0,0,0,313.7425842285156; 0,0,0,222.75723480224607,90.98534942626952,0; 0,0,45.49267471313476,268.24990951538086,0,0; 0,156.8712921142578,0,156.8712921142578,0,0" keyTimes="0; 0.5; 0.645; 1"></animate></path>
<path d="M784.902 327.084C796.817 374.728 786.687 438.864 737.482 461.528C728.317 465.386 720.116 470.208 711.433 475.031C679.595 491.426 656.44 523.735 620.743 527.593C559.479 534.344 488.567 516.984 455.282 458.635C444.669 440.31 459.623 421.021 455.764 400.768C443.704 340.972 394.982 258.029 463 218.005C468.789 214.629 475.542 214.629 481.331 212.218C515.099 197.269 548.866 171.229 587.458 179.427C618.813 163.996 651.616 145.189 689.243 153.387C718.187 159.173 737 182.802 747.613 208.36C759.673 237.776 762.567 270.085 775.881 298.681C778.968 307.988 781.911 317.439 784.902 327.084Z" stroke="#F89BA5" stroke-width="2" stroke-dasharray="0,0,0,0,0,1186.020263671875"><animate attributeType="XML" attributeName="stroke-dasharray" repeatCount="indefinite" dur="5.449305676771464s" values="0,0,0,0,0,1186.020263671875; 0,0,0,842.0743872070312,343.9458764648437,0; 0,0,171.97293823242185,1014.0473254394531,0,0; 0,593.0101318359375,0,593.0101318359375,0,0" keyTimes="0; 0.5; 0.645; 1"></animate></path>
<path d="M784.902 327.084C796.817 374.728 786.687 438.864 737.482 461.528C728.317 465.386 720.116 470.208 711.433 475.031C679.595 491.426 656.44 523.735 620.743 527.593C559.479 534.344 488.567 516.984 455.282 458.635C444.669 440.31 459.623 421.021 455.764 400.768C443.704 340.972 394.982 258.029 463 218.005C468.789 214.629 475.542 214.629 481.331 212.218C515.099 197.269 548.866 171.229 587.458 179.427C618.813 163.996 651.616 145.189 689.243 153.387C718.187 159.173 737 182.802 747.613 208.36C759.673 237.776 762.567 270.085 775.881 298.681C778.968 307.988 781.911 317.439 784.902 327.084Z" stroke="url(#paint0_radial_230_3897)" stroke-width="2" stroke-dasharray="0,0,0,0,0,1186.020263671875"><animate attributeType="XML" attributeName="stroke-dasharray" repeatCount="indefinite" dur="5.463782773509333s" values="0,0,0,0,0,1186.020263671875; 0,0,0,842.0743872070312,343.9458764648437,0; 0,0,171.97293823242185,1014.0473254394531,0,0; 0,593.0101318359375,0,593.0101318359375,0,0" keyTimes="0; 0.5; 0.645; 1"></animate></path>
<path d="M788.761 281.851C793.778 293.569 797.637 305.818 800.242 318.307C805.017 373.763 790.063 431.148 753.884 475.513C746.744 484.193 739.46 492.583 731.742 500.395C723.975 508.159 715.823 515.344 706.464 520.89C644.38 554.115 565.267 555.08 503.038 522.771C470.718 505.893 449.01 475.995 433.14 443.493C425.807 432.884 419.198 421.793 413.554 410.316C407.91 398.839 403.472 386.88 401.253 374.438C389.676 308.663 427.785 251.76 466.859 200.162C473.468 191.482 480.848 183.815 488.904 177.209C527.158 152.422 573.95 147.6 618.813 154.833C632.803 156.762 646.31 160.138 660.299 161.584C671.394 163.128 682.393 165.635 693.054 169.059C703.618 172.579 713.845 177.064 722.817 183.381C741.824 196.305 756.296 214.147 767.777 233.581C776.508 247.999 783.599 264.154 788.761 281.851Z" stroke="#F89BA5" stroke-width="2" stroke-dasharray="0,0,0,0,0,1256.009033203125"><animate attributeType="XML" attributeName="stroke-dasharray" repeatCount="indefinite" dur="5.371401342977258s" values="0,0,0,0,0,1256.009033203125; 0,0,0,891.7664135742187,364.2426196289062,0; 0,0,182.1213098144531,1073.887723388672,0,0; 0,628.0045166015625,0,628.0045166015625,0,0" keyTimes="0; 0.5; 0.645; 1"></animate></path>
<path d="M788.761 281.851C793.778 293.569 797.637 305.818 800.242 318.307C805.017 373.763 790.063 431.148 753.884 475.513C746.744 484.193 739.46 492.583 731.742 500.395C723.975 508.159 715.823 515.344 706.464 520.89C644.38 554.115 565.267 555.08 503.038 522.771C470.718 505.893 449.01 475.995 433.14 443.493C425.807 432.884 419.198 421.793 413.554 410.316C407.91 398.839 403.472 386.88 401.253 374.438C389.676 308.663 427.785 251.76 466.859 200.162C473.468 191.482 480.848 183.815 488.904 177.209C527.158 152.422 573.95 147.6 618.813 154.833C632.803 156.762 646.31 160.138 660.299 161.584C671.394 163.128 682.393 165.635 693.054 169.059C703.618 172.579 713.845 177.064 722.817 183.381C741.824 196.305 756.296 214.147 767.777 233.581C776.508 247.999 783.599 264.154 788.761 281.851Z" stroke="url(#paint1_radial_230_3897)" stroke-width="2" stroke-dasharray="0,0,0,0,0,1256.009033203125"><animate attributeType="XML" attributeName="stroke-dasharray" repeatCount="indefinite" dur="5.411427501958867s" values="0,0,0,0,0,1256.009033203125; 0,0,0,891.7664135742187,364.2426196289062,0; 0,0,182.1213098144531,1073.887723388672,0,0; 0,628.0045166015625,0,628.0045166015625,0,0" keyTimes="0; 0.5; 0.645; 1"></animate></path>
<path d="M802.895 257.354C820.454 300.947 836.373 346.276 828.655 394.499C822.866 432.112 801.641 462.975 779.306 492.294C772.697 500.058 765.365 507.098 757.405 514.525C725.423 544.374 683.31 563.133 638.592 564.724C543.56 568.1 452.387 521.806 398.842 439.828C372.792 399.803 378.099 352.545 388.615 309.627C391.172 298.777 395.32 287.734 397.202 278.428C410.902 225.72 433.574 174.122 483.261 143.26C521.129 120.113 565.509 104.2 608.973 101.789C623.444 100.969 637.82 101.596 651.472 103.573C719.152 109.986 772.215 164.96 791.993 227.456C795.804 237.197 799.47 247.179 802.895 257.354Z" stroke="#F89BA5" stroke-width="2" stroke-dasharray="0,0,0,0,0,1435.39306640625"><animate attributeType="XML" attributeName="stroke-dasharray" repeatCount="indefinite" dur="5.450938036013917s" values="0,0,0,0,0,1435.39306640625; 0,0,0,1019.1290771484374,416.26398925781245,0; 0,0,208.13199462890623,1227.2610717773437,0,0; 0,717.696533203125,0,717.696533203125,0,0" keyTimes="0; 0.5; 0.645; 1"></animate></path>
<path d="M802.895 257.354C820.454 300.947 836.373 346.276 828.655 394.499C822.866 432.112 801.641 462.975 779.306 492.294C772.697 500.058 765.365 507.098 757.405 514.525C725.423 544.374 683.31 563.133 638.592 564.724C543.56 568.1 452.387 521.806 398.842 439.828C372.792 399.803 378.099 352.545 388.615 309.627C391.172 298.777 395.32 287.734 397.202 278.428C410.902 225.72 433.574 174.122 483.261 143.26C521.129 120.113 565.509 104.2 608.973 101.789C623.444 100.969 637.82 101.596 651.472 103.573C719.152 109.986 772.215 164.96 791.993 227.456C795.804 237.197 799.47 247.179 802.895 257.354Z" stroke="url(#paint2_radial_230_3897)" stroke-width="2" stroke-dasharray="0,0,0,0,0,1435.39306640625"><animate attributeType="XML" attributeName="stroke-dasharray" repeatCount="indefinite" dur="5.474759516360349s" values="0,0,0,0,0,1435.39306640625; 0,0,0,1019.1290771484374,416.26398925781245,0; 0,0,208.13199462890623,1227.2610717773437,0,0; 0,717.696533203125,0,717.696533203125,0,0" keyTimes="0; 0.5; 0.645; 1"></animate></path>
<path d="M778.341 202.477C800.869 232.954 814.376 267.674 824.217 304.323C827.353 316.523 829.62 328.868 830.44 341.213C834.588 406.941 805.79 468.472 760.107 516.164C750.941 525.712 741.149 534.682 730.777 543.072C662.76 579.722 582.2 575.864 507.429 557.539C465.46 547.412 434.587 513.657 414.616 476.477C409.599 467.219 404.92 457.671 399.372 448.556C393.68 439.491 388.518 430.087 383.936 420.443C378.436 408.821 373.709 396.814 369.946 384.469C359.816 337.693 378.147 291.399 401.784 250.41C410.95 234.979 421.562 221.477 429.763 205.081C436.42 192.061 444.573 180.295 453.883 169.927C463.241 159.608 473.757 150.686 485.528 144.273C551.761 109.987 627.979 120.596 697.926 139.885C707.815 142.778 717.222 146.539 726.146 151.12C735.071 155.75 742.741 162.212 749.928 169.638C760.155 179.331 769.658 190.277 778.341 202.477Z" stroke="#F89BA5" stroke-width="2" stroke-dasharray="0,0,0,0,0,1442.1077880859375"><animate attributeType="XML" attributeName="stroke-dasharray" repeatCount="indefinite" dur="5.327674052144677s" values="0,0,0,0,0,1442.1077880859375; 0,0,0,1023.8965295410155,418.21125854492186,0; 0,0,209.10562927246093,1233.0021588134766,0,0; 0,721.0538940429688,0,721.0538940429688,0,0" keyTimes="0; 0.5; 0.645; 1"></animate></path>
<path d="M778.341 202.477C800.869 232.954 814.376 267.674 824.217 304.323C827.353 316.523 829.62 328.868 830.44 341.213C834.588 406.941 805.79 468.472 760.107 516.164C750.941 525.712 741.149 534.682 730.777 543.072C662.76 579.722 582.2 575.864 507.429 557.539C465.46 547.412 434.587 513.657 414.616 476.477C409.599 467.219 404.92 457.671 399.372 448.556C393.68 439.491 388.518 430.087 383.936 420.443C378.436 408.821 373.709 396.814 369.946 384.469C359.816 337.693 378.147 291.399 401.784 250.41C410.95 234.979 421.562 221.477 429.763 205.081C436.42 192.061 444.573 180.295 453.883 169.927C463.241 159.608 473.757 150.686 485.528 144.273C551.761 109.987 627.979 120.596 697.926 139.885C707.815 142.778 717.222 146.539 726.146 151.12C735.071 155.75 742.741 162.212 749.928 169.638C760.155 179.331 769.658 190.277 778.341 202.477Z" stroke="url(#paint3_radial_230_3897)" stroke-width="2" stroke-dasharray="0,0,0,0,0,1442.1077880859375"><animate attributeType="XML" attributeName="stroke-dasharray" repeatCount="indefinite" dur="5.3748563181671685s" values="0,0,0,0,0,1442.1077880859375; 0,0,0,1023.8965295410155,418.21125854492186,0; 0,0,209.10562927246093,1233.0021588134766,0,0; 0,721.0538940429688,0,721.0538940429688,0,0" keyTimes="0; 0.5; 0.645; 1"></animate></path>
<path d="M762.663 161.681C797.685 198.909 820.696 245.395 834.588 294.534C832.514 289.374 831.549 281.176 826.243 278.765C815.148 361.225 811.771 449.955 770.912 523.542C761.023 534.006 750.411 543.94 739.412 553.151C665.123 595.587 573.468 590.282 493.391 568.1C499.662 568.1 506.416 569.064 512.687 566.653C499.276 564.965 485.48 561.638 472.214 556.623C458.948 551.656 446.213 545.001 434.973 536.755C425.373 524.7 444.187 514.573 443.704 503.482C442.257 481.299 410.419 477.442 393.053 467.749C387.119 456.899 380.8 446.242 375.204 435.247C369.512 424.3 364.64 412.92 360.588 401.202C355.86 387.121 352.484 372.558 352.532 357.802C352.532 287.976 396.912 233.484 435.021 174.653C442.402 163.176 450.94 153.001 460.347 144.128C469.802 135.4 480.222 128.407 491.606 123.874C566.232 96.4841 652.099 107.093 724.94 134.339C739.026 141.042 751.617 150.252 762.663 161.681Z" stroke="#F89BA5" stroke-width="2" stroke-dasharray="0,0,0,0,0,1610.53857421875"><animate attributeType="XML" attributeName="stroke-dasharray" repeatCount="indefinite" dur="5.436824192563962s" values="0,0,0,0,0,1610.53857421875; 0,0,0,1143.4823876953124,467.0561865234375,0; 0,0,233.52809326171874,1377.0104809570312,0,0; 0,805.269287109375,0,805.269287109375,0,0" keyTimes="0; 0.5; 0.645; 1"></animate></path>
<path d="M762.663 161.681C797.685 198.909 820.696 245.395 834.588 294.534C832.514 289.374 831.549 281.176 826.243 278.765C815.148 361.225 811.771 449.955 770.912 523.542C761.023 534.006 750.411 543.94 739.412 553.151C665.123 595.587 573.468 590.282 493.391 568.1C499.662 568.1 506.416 569.064 512.687 566.653C499.276 564.965 485.48 561.638 472.214 556.623C458.948 551.656 446.213 545.001 434.973 536.755C425.373 524.7 444.187 514.573 443.704 503.482C442.257 481.299 410.419 477.442 393.053 467.749C387.119 456.899 380.8 446.242 375.204 435.247C369.512 424.3 364.64 412.92 360.588 401.202C355.86 387.121 352.484 372.558 352.532 357.802C352.532 287.976 396.912 233.484 435.021 174.653C442.402 163.176 450.94 153.001 460.347 144.128C469.802 135.4 480.222 128.407 491.606 123.874C566.232 96.4841 652.099 107.093 724.94 134.339C739.026 141.042 751.617 150.252 762.663 161.681Z" stroke="url(#paint4_radial_230_3897)" stroke-width="2" stroke-dasharray="0,0,0,0,0,1610.53857421875"><animate attributeType="XML" attributeName="stroke-dasharray" repeatCount="indefinite" dur="5.4320575883862805s" values="0,0,0,0,0,1610.53857421875; 0,0,0,1143.4823876953124,467.0561865234375,0; 0,0,233.52809326171874,1377.0104809570312,0,0; 0,805.269287109375,0,805.269287109375,0,0" keyTimes="0; 0.5; 0.645; 1"></animate></path>
<path d="M736.325 123.489C778.004 145.671 805.983 186.66 823.349 229.578C831.887 249.976 840.811 270.857 848.24 292.075C851.955 302.683 855.235 313.437 857.84 324.239C873.035 411.859 823.349 491.426 763.049 552.669C755.572 560.24 747.516 566.846 738.592 571.717C666.088 604.749 584.081 596.551 506.416 589.318C497.25 588.836 488.085 585.942 479.401 582.084C431.644 558.938 398.359 515.537 376.217 468.81C369.223 458.201 362.903 447.158 357.452 435.729C351.953 424.3 347.322 412.534 343.607 400.43C339.266 385.915 336.323 370.918 336.902 355.969C341.437 279.73 387.264 218.005 432.127 154.833C438.398 146.009 445.393 138.004 452.966 130.819C460.54 123.73 468.692 117.461 477.52 113.025C543.608 82.0657 618.379 97.0147 687.362 107.334C704.294 110.758 720.695 116.063 736.325 123.489Z" stroke="#F89BA5" stroke-width="2" stroke-dasharray="0,0,0,0,0,1623.2811279296875"><animate attributeType="XML" attributeName="stroke-dasharray" repeatCount="indefinite" dur="5.41889497372487s" values="0,0,0,0,0,1623.2811279296875; 0,0,0,1152.5296008300782,470.75152709960935,0; 0,0,235.37576354980467,1387.9053643798827,0,0; 0,811.6405639648438,0,811.6405639648438,0,0" keyTimes="0; 0.5; 0.645; 1"></animate></path>
<path d="M736.325 123.489C778.004 145.671 805.983 186.66 823.349 229.578C831.887 249.976 840.811 270.857 848.24 292.075C851.955 302.683 855.235 313.437 857.84 324.239C873.035 411.859 823.349 491.426 763.049 552.669C755.572 560.24 747.516 566.846 738.592 571.717C666.088 604.749 584.081 596.551 506.416 589.318C497.25 588.836 488.085 585.942 479.401 582.084C431.644 558.938 398.359 515.537 376.217 468.81C369.223 458.201 362.903 447.158 357.452 435.729C351.953 424.3 347.322 412.534 343.607 400.43C339.266 385.915 336.323 370.918 336.902 355.969C341.437 279.73 387.264 218.005 432.127 154.833C438.398 146.009 445.393 138.004 452.966 130.819C460.54 123.73 468.692 117.461 477.52 113.025C543.608 82.0657 618.379 97.0147 687.362 107.334C704.294 110.758 720.695 116.063 736.325 123.489Z" stroke="url(#paint5_radial_230_3897)" stroke-width="2" stroke-dasharray="0,0,0,0,0,1623.2811279296875"><animate attributeType="XML" attributeName="stroke-dasharray" repeatCount="indefinite" dur="5.331758467378888s" values="0,0,0,0,0,1623.2811279296875; 0,0,0,1152.5296008300782,470.75152709960935,0; 0,0,235.37576354980467,1387.9053643798827,0,0; 0,811.6405639648438,0,811.6405639648438,0,0" keyTimes="0; 0.5; 0.645; 1"></animate></path>
<path d="M697.348 94.459C711.578 97.1112 725.085 101.499 737.82 107.334C750.411 113.218 762.23 120.596 772.263 129.758C780.464 137.473 787.989 145.719 794.936 154.448C801.882 163.176 808.202 172.29 814.039 181.742C819.683 191.242 823.301 201.513 825.375 212.556C827.449 223.599 828.076 235.558 843.175 241.682C847.517 253.256 851.617 264.733 855.669 276.161C859.721 287.59 863.677 299.067 867.777 310.64C894.309 405.639 835.939 498.226 770.334 565.255C761.168 574.562 751.183 582.422 740.136 587.63C656.923 618.734 562.374 620.663 477.472 596.069C420.55 579.673 386.782 524.218 361.505 471.655C353.593 459.262 346.454 446.338 340.183 432.981C333.912 419.623 328.509 405.831 324.071 391.606C320.694 380.611 318.764 369.568 319.006 358.959C321.659 303.359 351.567 255.618 380.028 207.878C397.395 177.884 413.7 149.192 437.433 125.129C445.345 117.124 454.076 109.601 463.965 102.753C517.993 72.8554 582.634 78.642 641.679 86.3576C660.155 87.5632 678.775 90.2154 697.348 94.459Z" stroke="#F89BA5" stroke-width="2" stroke-dasharray="0,0,0,0,0,1719.4210205078125"><animate attributeType="XML" attributeName="stroke-dasharray" repeatCount="indefinite" dur="5.315455217049571s" values="0,0,0,0,0,1719.4210205078125; 0,0,0,1220.7889245605468,498.6320959472656,0; 0,0,249.3160479736328,1470.1049725341798,0,0; 0,859.7105102539062,0,859.7105102539062,0,0" keyTimes="0; 0.5; 0.645; 1"></animate></path>
<path d="M697.348 94.459C711.578 97.1112 725.085 101.499 737.82 107.334C750.411 113.218 762.23 120.596 772.263 129.758C780.464 137.473 787.989 145.719 794.936 154.448C801.882 163.176 808.202 172.29 814.039 181.742C819.683 191.242 823.301 201.513 825.375 212.556C827.449 223.599 828.076 235.558 843.175 241.682C847.517 253.256 851.617 264.733 855.669 276.161C859.721 287.59 863.677 299.067 867.777 310.64C894.309 405.639 835.939 498.226 770.334 565.255C761.168 574.562 751.183 582.422 740.136 587.63C656.923 618.734 562.374 620.663 477.472 596.069C420.55 579.673 386.782 524.218 361.505 471.655C353.593 459.262 346.454 446.338 340.183 432.981C333.912 419.623 328.509 405.831 324.071 391.606C320.694 380.611 318.764 369.568 319.006 358.959C321.659 303.359 351.567 255.618 380.028 207.878C397.395 177.884 413.7 149.192 437.433 125.129C445.345 117.124 454.076 109.601 463.965 102.753C517.993 72.8554 582.634 78.642 641.679 86.3576C660.155 87.5632 678.775 90.2154 697.348 94.459Z" stroke="url(#paint6_radial_230_3897)" stroke-width="2" stroke-dasharray="0,0,0,0,0,1719.4210205078125"><animate attributeType="XML" attributeName="stroke-dasharray" repeatCount="indefinite" dur="5.442530529989401s" values="0,0,0,0,0,1719.4210205078125; 0,0,0,1220.7889245605468,498.6320959472656,0; 0,0,249.3160479736328,1470.1049725341798,0,0; 0,859.7105102539062,0,859.7105102539062,0,0" keyTimes="0; 0.5; 0.645; 1"></animate></path>
<path d="M633.961 81.9212C648.24 79.6065 662.711 79.6065 677.183 78.642C686.349 78.1598 695.514 77.1954 704.68 76.2309C807.912 62.2464 854.704 175.569 873.518 257.21C875.399 268.205 877.329 278.621 879.548 288.554C882.394 298.054 884.372 307.892 886.06 317.777C888.424 330.797 892.283 344.782 890.353 357.802C880.705 424.831 871.058 496.2 818.959 545.387C793.874 568.052 764.931 583.001 740.377 605.135C730.15 614.635 719.345 623.266 707.333 630.211C695.321 637.155 682.055 642.459 667.005 645.208C657.357 644.243 648.191 640.385 640.473 634.117C568.596 578.178 480.318 582.036 394.934 598.432C381.427 600.843 368.403 597.564 357.742 590.62C347.081 583.676 338.735 572.874 335.744 559.613C328.894 505.411 339.507 450.437 340.954 396.91C341.581 372.944 338.639 348.35 335.889 323.709C334.49 311.364 333.284 299.115 333.67 287.542C334.201 259.958 338.542 232.954 348.673 206.914C369.271 154.207 402.508 98.2686 450.651 69.3833C462.711 62.15 475.687 56.7008 489.58 53.4699C503.184 53.2288 517.414 58.6297 532.899 66.49C551.085 74.3502 569.175 78.2563 587.94 83.609C603.522 84.5252 618.379 83.3196 633.961 81.9212Z" stroke="#F89BA5" stroke-width="2" stroke-dasharray="0,0,0,0,0,1919.6014404296875"><animate attributeType="XML" attributeName="stroke-dasharray" repeatCount="indefinite" dur="5.332676123616337s" values="0,0,0,0,0,1919.6014404296875; 0,0,0,1362.9170227050781,556.6844177246094,0; 0,0,278.3422088623047,1641.2592315673828,0,0; 0,959.8007202148438,0,959.8007202148438,0,0" keyTimes="0; 0.5; 0.645; 1"></animate></path>
<path d="M633.961 81.9212C648.24 79.6065 662.711 79.6065 677.183 78.642C686.349 78.1598 695.514 77.1954 704.68 76.2309C807.912 62.2464 854.704 175.569 873.518 257.21C875.399 268.205 877.329 278.621 879.548 288.554C882.394 298.054 884.372 307.892 886.06 317.777C888.424 330.797 892.283 344.782 890.353 357.802C880.705 424.831 871.058 496.2 818.959 545.387C793.874 568.052 764.931 583.001 740.377 605.135C730.15 614.635 719.345 623.266 707.333 630.211C695.321 637.155 682.055 642.459 667.005 645.208C657.357 644.243 648.191 640.385 640.473 634.117C568.596 578.178 480.318 582.036 394.934 598.432C381.427 600.843 368.403 597.564 357.742 590.62C347.081 583.676 338.735 572.874 335.744 559.613C328.894 505.411 339.507 450.437 340.954 396.91C341.581 372.944 338.639 348.35 335.889 323.709C334.49 311.364 333.284 299.115 333.67 287.542C334.201 259.958 338.542 232.954 348.673 206.914C369.271 154.207 402.508 98.2686 450.651 69.3833C462.711 62.15 475.687 56.7008 489.58 53.4699C503.184 53.2288 517.414 58.6297 532.899 66.49C551.085 74.3502 569.175 78.2563 587.94 83.609C603.522 84.5252 618.379 83.3196 633.961 81.9212Z" stroke="url(#paint7_radial_230_3897)" stroke-width="2" stroke-dasharray="0,0,0,0,0,1919.6014404296875"><animate attributeType="XML" attributeName="stroke-dasharray" repeatCount="indefinite" dur="5.329303858672266s" values="0,0,0,0,0,1919.6014404296875; 0,0,0,1362.9170227050781,556.6844177246094,0; 0,0,278.3422088623047,1641.2592315673828,0,0; 0,959.8007202148438,0,959.8007202148438,0,0" keyTimes="0; 0.5; 0.645; 1"></animate></path>
<path d="M597.492 53.5182C652.533 51.6375 711.048 61.3784 760.59 85.7308C772.987 91.8068 784.709 98.8473 795.081 107.19C818.525 126.382 837.821 150.494 849.398 178.945C866.138 220.079 885.626 261.019 897.348 303.745C900.291 314.402 902.703 325.204 904.44 336.102C909.891 428.11 860.349 511.632 797.493 576.925C788.52 586.232 779.258 595.201 769.852 603.785C732.225 634.647 680.609 639.469 634.299 638.505C575.447 637.54 512.735 651.525 457.742 623.556C411.915 599.927 377.182 560.384 352.918 515.055C344.476 500.058 335.311 486.122 326.965 471.8C310.226 443.059 297.539 411.859 290.303 378.104C287.988 366.916 286.878 355.921 287.795 345.602C293.68 292.75 322.624 246.938 346.261 199.68C366.522 159.656 393.632 121.946 427.255 93.3981C438.447 83.8983 450.362 75.4112 463 68.1778C489.05 55.9775 517.511 51.6375 546.069 51.3482C562.663 50.7695 579.836 51.4928 597.492 53.5182Z" stroke="#F89BA5" stroke-width="2" stroke-dasharray="0,0,0,0,0,1909.1722412109375"><animate attributeType="XML" attributeName="stroke-dasharray" repeatCount="indefinite" dur="5.375642553985228s" values="0,0,0,0,0,1909.1722412109375; 0,0,0,1355.5122912597656,553.6599499511718,0; 0,0,276.8299749755859,1632.3422662353514,0,0; 0,954.5861206054688,0,954.5861206054688,0,0" keyTimes="0; 0.5; 0.645; 1"></animate></path>
<path d="M597.492 53.5182C652.533 51.6375 711.048 61.3784 760.59 85.7308C772.987 91.8068 784.709 98.8473 795.081 107.19C818.525 126.382 837.821 150.494 849.398 178.945C866.138 220.079 885.626 261.019 897.348 303.745C900.291 314.402 902.703 325.204 904.44 336.102C909.891 428.11 860.349 511.632 797.493 576.925C788.52 586.232 779.258 595.201 769.852 603.785C732.225 634.647 680.609 639.469 634.299 638.505C575.447 637.54 512.735 651.525 457.742 623.556C411.915 599.927 377.182 560.384 352.918 515.055C344.476 500.058 335.311 486.122 326.965 471.8C310.226 443.059 297.539 411.859 290.303 378.104C287.988 366.916 286.878 355.921 287.795 345.602C293.68 292.75 322.624 246.938 346.261 199.68C366.522 159.656 393.632 121.946 427.255 93.3981C438.447 83.8983 450.362 75.4112 463 68.1778C489.05 55.9775 517.511 51.6375 546.069 51.3482C562.663 50.7695 579.836 51.4928 597.492 53.5182Z" stroke="url(#paint8_radial_230_3897)" stroke-width="2" stroke-dasharray="0,0,0,0,0,1909.1722412109375"><animate attributeType="XML" attributeName="stroke-dasharray" repeatCount="indefinite" dur="5.3676785414305055s" values="0,0,0,0,0,1909.1722412109375; 0,0,0,1355.5122912597656,553.6599499511718,0; 0,0,276.8299749755859,1632.3422662353514,0,0; 0,954.5861206054688,0,954.5861206054688,0,0" keyTimes="0; 0.5; 0.645; 1"></animate></path>
<path d="M539.074 36.3027C610.613 38.1352 683.937 36.6885 751.955 62.2464C764.883 67.1651 777.087 73.2411 788.472 80.378C799.76 87.515 810.228 95.7128 818.863 105.213C864.835 159.029 891.608 223.599 909.553 292.46C913.171 306.252 916.403 320.188 919.345 334.221C932.37 436.935 865.317 526.146 798.747 598.962C790.546 607.98 781.67 616.033 772.215 623.266C762.76 630.307 752.63 635.563 741.969 639.035C714.328 648.149 684.902 654.418 655.958 653.936C589.388 653.936 519.44 667.438 456.729 640.916C403.183 617.769 365.557 569.547 338.157 518.768C330.824 505.989 323.106 494.079 316.063 481.878C294.741 445.518 279.739 406.41 274.674 366.434C272.889 351.34 273.564 336.68 276.266 322.358C281.138 298.054 287.891 274.425 300.433 252.243C331.307 196.787 353.979 139.402 399.807 93.591C412.59 81.0532 426.338 70.3478 441.051 61.3784C455.764 52.409 471.442 45.5132 487.844 42.5717C504.1 39.0514 521.225 36.9778 539.074 36.3027Z" stroke="#F89BA5" stroke-width="2" stroke-dasharray="0,0,0,0,0,2010.0491943359375"><animate attributeType="XML" attributeName="stroke-dasharray" repeatCount="indefinite" dur="5.531075924015235s" values="0,0,0,0,0,2010.0491943359375; 0,0,0,1427.1349279785156,582.9142663574219,0; 0,0,291.45713317871093,1718.5920611572265,0,0; 0,1005.0245971679688,0,1005.0245971679688,0,0" keyTimes="0; 0.5; 0.645; 1"></animate></path>
<path d="M539.074 36.3027C610.613 38.1352 683.937 36.6885 751.955 62.2464C764.883 67.1651 777.087 73.2411 788.472 80.378C799.76 87.515 810.228 95.7128 818.863 105.213C864.835 159.029 891.608 223.599 909.553 292.46C913.171 306.252 916.403 320.188 919.345 334.221C932.37 436.935 865.317 526.146 798.747 598.962C790.546 607.98 781.67 616.033 772.215 623.266C762.76 630.307 752.63 635.563 741.969 639.035C714.328 648.149 684.902 654.418 655.958 653.936C589.388 653.936 519.44 667.438 456.729 640.916C403.183 617.769 365.557 569.547 338.157 518.768C330.824 505.989 323.106 494.079 316.063 481.878C294.741 445.518 279.739 406.41 274.674 366.434C272.889 351.34 273.564 336.68 276.266 322.358C281.138 298.054 287.891 274.425 300.433 252.243C331.307 196.787 353.979 139.402 399.807 93.591C412.59 81.0532 426.338 70.3478 441.051 61.3784C455.764 52.409 471.442 45.5132 487.844 42.5717C504.1 39.0514 521.225 36.9778 539.074 36.3027Z" stroke="url(#paint9_radial_230_3897)" stroke-width="2" stroke-dasharray="0,0,0,0,0,2010.0491943359375"><animate attributeType="XML" attributeName="stroke-dasharray" repeatCount="indefinite" dur="5.438617805169624s" values="0,0,0,0,0,2010.0491943359375; 0,0,0,1427.1349279785156,582.9142663574219,0; 0,0,291.45713317871093,1718.5920611572265,0,0; 0,1005.0245971679688,0,1005.0245971679688,0,0" keyTimes="0; 0.5; 0.645; 1"></animate></path>
<path d="M495.9 29.3104C565.992 -11.4375 648.385 -4.54172 720.792 25.8384C732.852 30.9018 744.671 36.592 756.055 42.8609C778.969 56.4597 805.5 64.1753 820.937 86.8398C845.057 123.007 864.353 158.209 883.166 195.823C912.592 255.618 971.444 308.663 958.42 380.515C951.666 417.646 929.476 447.544 905.356 474.741C896.673 484.868 887.652 494.802 878.824 504.928C857.599 529.522 850.363 562.795 823.831 582.084C794.164 604.026 763.436 623.17 731.019 637.733C720.213 642.604 709.263 646.895 698.071 650.657C664.641 662.616 630.391 666.474 594.694 672.743C584.564 674.671 574.916 677.083 565.268 679.06C551.954 682.435 538.736 684.027 525.856 683.978C512.977 683.978 500.434 681.953 488.664 677.951C476.893 673.948 465.847 667.92 455.813 660.012C451.905 657.311 448.529 654.9 445.152 651.525C414.279 616.805 392.571 576.78 359.479 545.291C352.58 538.105 346.02 530.872 338.301 524.121C307.476 497.116 279.015 468.376 268.933 427.242C265.508 415.379 262.614 403.372 260.732 391.22C256.922 367.012 257.018 342.419 264.736 318.308C267.631 310.11 273.419 302.876 275.831 294.679C284.273 268.156 290.882 241.875 299.469 216.269C303.762 203.442 308.538 190.807 314.278 178.366C321.032 164.623 326.049 153.531 332.561 143.453C360.25 97.4488 408.972 69.962 456.729 48.7923C470.285 42.3787 483.164 35.3865 495.9 29.3104Z" stroke="#F89BA5" stroke-width="2" stroke-dasharray="0,0,0,0,0,2124.578857421875"><animate attributeType="XML" attributeName="stroke-dasharray" repeatCount="indefinite" dur="5.312012711692339s" values="0,0,0,0,0,2124.578857421875; 0,0,0,1508.4509887695312,616.1278686523438,0; 0,0,308.0639343261719,1816.5149230957031,0,0; 0,1062.2894287109375,0,1062.2894287109375,0,0" keyTimes="0; 0.5; 0.645; 1"></animate></path>
<path d="M495.9 29.3104C565.992 -11.4375 648.385 -4.54172 720.792 25.8384C732.852 30.9018 744.671 36.592 756.055 42.8609C778.969 56.4597 805.5 64.1753 820.937 86.8398C845.057 123.007 864.353 158.209 883.166 195.823C912.592 255.618 971.444 308.663 958.42 380.515C951.666 417.646 929.476 447.544 905.356 474.741C896.673 484.868 887.652 494.802 878.824 504.928C857.599 529.522 850.363 562.795 823.831 582.084C794.164 604.026 763.436 623.17 731.019 637.733C720.213 642.604 709.263 646.895 698.071 650.657C664.641 662.616 630.391 666.474 594.694 672.743C584.564 674.671 574.916 677.083 565.268 679.06C551.954 682.435 538.736 684.027 525.856 683.978C512.977 683.978 500.434 681.953 488.664 677.951C476.893 673.948 465.847 667.92 455.813 660.012C451.905 657.311 448.529 654.9 445.152 651.525C414.279 616.805 392.571 576.78 359.479 545.291C352.58 538.105 346.02 530.872 338.301 524.121C307.476 497.116 279.015 468.376 268.933 427.242C265.508 415.379 262.614 403.372 260.732 391.22C256.922 367.012 257.018 342.419 264.736 318.308C267.631 310.11 273.419 302.876 275.831 294.679C284.273 268.156 290.882 241.875 299.469 216.269C303.762 203.442 308.538 190.807 314.278 178.366C321.032 164.623 326.049 153.531 332.561 143.453C360.25 97.4488 408.972 69.962 456.729 48.7923C470.285 42.3787 483.164 35.3865 495.9 29.3104Z" stroke="url(#paint10_radial_230_3897)" stroke-width="2" stroke-dasharray="0,0,0,0,0,2124.578857421875"><animate attributeType="XML" attributeName="stroke-dasharray" repeatCount="indefinite" dur="5.423030755795307s" values="0,0,0,0,0,2124.578857421875; 0,0,0,1508.4509887695312,616.1278686523438,0; 0,0,308.0639343261719,1816.5149230957031,0,0; 0,1062.2894287109375,0,1062.2894287109375,0,0" keyTimes="0; 0.5; 0.645; 1"></animate></path>
<path d="M392.088 37.4599C408.007 23.6683 426.338 13.0594 447.081 8.23712C460.009 5.24733 472.937 2.78798 485.865 0.762641C498.697 -1.11803 511.191 -1.45559 522.141 2.54688C593.246 30.4195 669.947 35.2417 745.683 33.795C841.197 32.3484 910.179 120.113 928.173 207.01C932.514 225.142 939.075 238.933 944.526 253.014C951.665 295.161 953.595 340.49 938.158 379.55C913.074 443.204 893.778 505.893 874.964 571.958C861.94 618.251 834.443 656.829 789.098 673.562C777.473 680.458 764.786 685.714 751.472 689.476C731.452 695.166 709.937 697.529 688.181 697.288C677.328 697.191 666.425 696.323 656.15 692.61C625.084 674.189 590.834 664.063 554.655 665.027C498.215 665.992 439.362 671.296 386.781 646.703C363.144 635.611 343.511 619.553 327.35 600.361C319.246 590.764 312.203 580.3 308.103 568.196C295.609 530.969 288.855 492.391 277.76 453.813C273.419 437.417 264.736 423.433 258.465 407.519C240.616 360.984 247.273 315.8 262.034 271.58C267.051 256.969 273.901 243.37 281.33 230.35C302.845 195.822 316.834 158.209 330.341 119.149C337.095 100.342 348.19 83.4642 361.118 68.2259C370.139 57.3758 380.462 47.0562 392.088 37.4599Z" stroke="#F89BA5" stroke-width="2" stroke-dasharray="0,0,0,0,0,2263.283447265625"><animate attributeType="XML" attributeName="stroke-dasharray" repeatCount="indefinite" dur="5.438406767316901s" values="0,0,0,0,0,2263.283447265625; 0,0,0,1606.9312475585937,656.3521997070312,0; 0,0,328.1760998535156,1935.1073474121094,0,0; 0,1131.6417236328125,0,1131.6417236328125,0,0" keyTimes="0; 0.5; 0.645; 1"></animate></path>
<path d="M392.088 37.4599C408.007 23.6683 426.338 13.0594 447.081 8.23712C460.009 5.24733 472.937 2.78798 485.865 0.762641C498.697 -1.11803 511.191 -1.45559 522.141 2.54688C593.246 30.4195 669.947 35.2417 745.683 33.795C841.197 32.3484 910.179 120.113 928.173 207.01C932.514 225.142 939.075 238.933 944.526 253.014C951.665 295.161 953.595 340.49 938.158 379.55C913.074 443.204 893.778 505.893 874.964 571.958C861.94 618.251 834.443 656.829 789.098 673.562C777.473 680.458 764.786 685.714 751.472 689.476C731.452 695.166 709.937 697.529 688.181 697.288C677.328 697.191 666.425 696.323 656.15 692.61C625.084 674.189 590.834 664.063 554.655 665.027C498.215 665.992 439.362 671.296 386.781 646.703C363.144 635.611 343.511 619.553 327.35 600.361C319.246 590.764 312.203 580.3 308.103 568.196C295.609 530.969 288.855 492.391 277.76 453.813C273.419 437.417 264.736 423.433 258.465 407.519C240.616 360.984 247.273 315.8 262.034 271.58C267.051 256.969 273.901 243.37 281.33 230.35C302.845 195.822 316.834 158.209 330.341 119.149C337.095 100.342 348.19 83.4642 361.118 68.2259C370.139 57.3758 380.462 47.0562 392.088 37.4599Z" stroke="url(#paint11_radial_230_3897)" stroke-width="2" stroke-dasharray="0,0,0,0,0,2263.283447265625"><animate attributeType="XML" attributeName="stroke-dasharray" repeatCount="indefinite" dur="5.544064869268528s" values="0,0,0,0,0,2263.283447265625; 0,0,0,1606.9312475585937,656.3521997070312,0; 0,0,328.1760998535156,1935.1073474121094,0,0; 0,1131.6417236328125,0,1131.6417236328125,0,0" keyTimes="0; 0.5; 0.645; 1"></animate></path>
<path d="M355.571 69.0458C384.659 37.6529 420.791 14.6508 460.251 -0.201679C473.324 -5.02392 486.541 -8.15839 499.614 -9.70151C604.776 -15.874 715.727 -20.214 811.723 38.1352C821.709 44.3076 831.067 51.0588 839.847 58.2439C848.578 65.4773 856.731 73.1447 863.774 81.3425C917.416 155.798 955.525 241.152 969.514 333.739C971.589 347.82 972.505 361.804 972.216 375.644C959.867 476.96 899.567 565.207 829.138 638.023C819.007 648.535 808.105 657.842 796.624 666.04C785.095 674.238 772.987 681.278 760.396 687.258C672.359 708.427 580.222 709.874 490.014 701.676C406.078 693.478 344.814 626.931 307.139 556.575C298.6 544.905 290.496 532.946 282.922 520.794C252.532 472.186 230.92 418.948 225.373 364.457C223.781 348.881 223.54 333.257 224.746 317.584C244.476 238.741 285.962 165.442 331.065 97.9792C338.543 88.0936 346.695 78.4009 355.571 69.0458Z" stroke="#F89BA5" stroke-width="2" stroke-dasharray="0,0,0,0,0,2320.17626953125"><animate attributeType="XML" attributeName="stroke-dasharray" repeatCount="indefinite" dur="5.459594354930828s" values="0,0,0,0,0,2320.17626953125; 0,0,0,1647.3251513671873,672.8511181640624,0; 0,0,336.4255590820312,1983.7507104492188,0,0; 0,1160.088134765625,0,1160.088134765625,0,0" keyTimes="0; 0.5; 0.645; 1"></animate></path>
<path d="M355.571 69.0458C384.659 37.6529 420.791 14.6508 460.251 -0.201679C473.324 -5.02392 486.541 -8.15839 499.614 -9.70151C604.776 -15.874 715.727 -20.214 811.723 38.1352C821.709 44.3076 831.067 51.0588 839.847 58.2439C848.578 65.4773 856.731 73.1447 863.774 81.3425C917.416 155.798 955.525 241.152 969.514 333.739C971.589 347.82 972.505 361.804 972.216 375.644C959.867 476.96 899.567 565.207 829.138 638.023C819.007 648.535 808.105 657.842 796.624 666.04C785.095 674.238 772.987 681.278 760.396 687.258C672.359 708.427 580.222 709.874 490.014 701.676C406.078 693.478 344.814 626.931 307.139 556.575C298.6 544.905 290.496 532.946 282.922 520.794C252.532 472.186 230.92 418.948 225.373 364.457C223.781 348.881 223.54 333.257 224.746 317.584C244.476 238.741 285.962 165.442 331.065 97.9792C338.543 88.0936 346.695 78.4009 355.571 69.0458Z" stroke="url(#paint12_radial_230_3897)" stroke-width="2" stroke-dasharray="0,0,0,0,0,2320.17626953125"><animate attributeType="XML" attributeName="stroke-dasharray" repeatCount="indefinite" dur="5.390987668742692s" values="0,0,0,0,0,2320.17626953125; 0,0,0,1647.3251513671873,672.8511181640624,0; 0,0,336.4255590820312,1983.7507104492188,0,0; 0,1160.088134765625,0,1160.088134765625,0,0" keyTimes="0; 0.5; 0.645; 1"></animate></path>
<path d="M302.122 109.36C336.951 53.0842 390.159 10.3108 450.989 -13.6557C463.097 -18.3815 475.543 -22.3358 487.844 -24.7469C502.074 -27.8814 517.029 -29.328 531.5 -28.8458C557.067 -28.8458 582.634 -29.8103 608.201 -29.8103C697.926 -30.196 792.524 -3.96299 860.059 55.206C871.299 65.0433 881.622 75.8452 889.823 87.6597C933.335 161.102 972.409 238.258 985.434 325.059C987.46 338.947 988.424 352.835 988.473 366.627C988.473 380.322 987.508 393.921 984.951 406.555C977.185 445.133 961.748 480.335 941.487 514.573C900.001 585.46 857.068 653.454 783.262 692.996C771.588 699.265 759.673 704.521 747.902 707.27C632.321 722.894 504.969 748.452 396.912 683.834C353.979 658.758 326.483 619.216 300.675 578.613C292.136 565.303 283.598 552.958 275.445 540.372C259.189 515.248 244.813 488.822 232.416 461.528C212.155 417.164 205.161 369.424 208.971 322.358C210.322 306.783 213.458 291.978 218.089 278.042C232.416 234.401 255.088 193.894 275.687 152.808C283.646 138.293 292.377 123.778 302.122 109.36Z" stroke="#F89BA5" stroke-width="2" stroke-dasharray="0,0,0,0,0,2423.84375"><animate attributeType="XML" attributeName="stroke-dasharray" repeatCount="indefinite" dur="5.5254163401470535s" values="0,0,0,0,0,2423.84375; 0,0,0,1720.9290624999999,702.9146874999999,0; 0,0,351.45734374999995,2072.38640625,0,0; 0,1211.921875,0,1211.921875,0,0" keyTimes="0; 0.5; 0.645; 1"></animate></path>
<path d="M302.122 109.36C336.951 53.0842 390.159 10.3108 450.989 -13.6557C463.097 -18.3815 475.543 -22.3358 487.844 -24.7469C502.074 -27.8814 517.029 -29.328 531.5 -28.8458C557.067 -28.8458 582.634 -29.8103 608.201 -29.8103C697.926 -30.196 792.524 -3.96299 860.059 55.206C871.299 65.0433 881.622 75.8452 889.823 87.6597C933.335 161.102 972.409 238.258 985.434 325.059C987.46 338.947 988.424 352.835 988.473 366.627C988.473 380.322 987.508 393.921 984.951 406.555C977.185 445.133 961.748 480.335 941.487 514.573C900.001 585.46 857.068 653.454 783.262 692.996C771.588 699.265 759.673 704.521 747.902 707.27C632.321 722.894 504.969 748.452 396.912 683.834C353.979 658.758 326.483 619.216 300.675 578.613C292.136 565.303 283.598 552.958 275.445 540.372C259.189 515.248 244.813 488.822 232.416 461.528C212.155 417.164 205.161 369.424 208.971 322.358C210.322 306.783 213.458 291.978 218.089 278.042C232.416 234.401 255.088 193.894 275.687 152.808C283.646 138.293 292.377 123.778 302.122 109.36Z" stroke="url(#paint13_radial_230_3897)" stroke-width="2" stroke-dasharray="0,0,0,0,0,2423.84375"><animate attributeType="XML" attributeName="stroke-dasharray" repeatCount="indefinite" dur="5.549706269128874s" values="0,0,0,0,0,2423.84375; 0,0,0,1720.9290624999999,702.9146874999999,0; 0,0,351.45734374999995,2072.38640625,0,0; 0,1211.921875,0,1211.921875,0,0" keyTimes="0; 0.5; 0.645; 1"></animate></path>
<path d="M235.358 172.627C253.159 141.331 273.419 111.915 300.433 87.6113C314.182 74.7359 327.013 62.6321 337.385 50.7693C354.413 30.9981 372.793 12.5771 392.715 -3.43271C402.653 -11.4376 412.976 -18.7674 423.637 -25.3257C525.229 -66.9899 638.592 -64.0965 747.131 -39.9853C811.289 -25.5186 866.764 13.0594 897.155 70.3959C905.356 82.4997 913.557 94.5553 918.381 108.54C936.712 165.442 962.278 217.523 986.398 271.532C1026.92 361.418 1012.79 464.566 957.069 541.481C949.109 552.476 940.281 562.94 930.682 572.729C901.014 598.48 876.412 628.378 846.021 654.9C798.988 696.275 745.587 723.617 686.108 739.097C674.193 742.183 662.084 744.835 649.687 747.005C641.004 748.452 632.321 748.934 623.638 747.005C549.349 730.127 482.778 712.285 408.007 701.676C308.152 687.691 234.345 591.247 236.13 492.728C234.635 477.876 230.824 465.434 227.013 452.945C204.051 378.152 183.212 300.61 215.098 225.961C220.115 208.312 226.868 190.518 235.358 172.627Z" stroke="#F89BA5" stroke-width="2" stroke-dasharray="0,0,0,0,0,2551.498291015625"><animate attributeType="XML" attributeName="stroke-dasharray" repeatCount="indefinite" dur="5.464881416772981s" values="0,0,0,0,0,2551.498291015625; 0,0,0,1811.5637866210936,739.9345043945312,0; 0,0,369.9672521972656,2181.5310388183593,0,0; 0,1275.7491455078125,0,1275.7491455078125,0,0" keyTimes="0; 0.5; 0.645; 1"></animate></path>
<path d="M235.358 172.627C253.159 141.331 273.419 111.915 300.433 87.6113C314.182 74.7359 327.013 62.6321 337.385 50.7693C354.413 30.9981 372.793 12.5771 392.715 -3.43271C402.653 -11.4376 412.976 -18.7674 423.637 -25.3257C525.229 -66.9899 638.592 -64.0965 747.131 -39.9853C811.289 -25.5186 866.764 13.0594 897.155 70.3959C905.356 82.4997 913.557 94.5553 918.381 108.54C936.712 165.442 962.278 217.523 986.398 271.532C1026.92 361.418 1012.79 464.566 957.069 541.481C949.109 552.476 940.281 562.94 930.682 572.729C901.014 598.48 876.412 628.378 846.021 654.9C798.988 696.275 745.587 723.617 686.108 739.097C674.193 742.183 662.084 744.835 649.687 747.005C641.004 748.452 632.321 748.934 623.638 747.005C549.349 730.127 482.778 712.285 408.007 701.676C308.152 687.691 234.345 591.247 236.13 492.728C234.635 477.876 230.824 465.434 227.013 452.945C204.051 378.152 183.212 300.61 215.098 225.961C220.115 208.312 226.868 190.518 235.358 172.627Z" stroke="url(#paint14_radial_230_3897)" stroke-width="2" stroke-dasharray="0,0,0,0,0,2551.498291015625"><animate attributeType="XML" attributeName="stroke-dasharray" repeatCount="indefinite" dur="5.46907888191479s" values="0,0,0,0,0,2551.498291015625; 0,0,0,1811.5637866210936,739.9345043945312,0; 0,0,369.9672521972656,2181.5310388183593,0,0; 0,1275.7491455078125,0,1275.7491455078125,0,0" keyTimes="0; 0.5; 0.645; 1"></animate></path>
<path d="M210.032 210.482C250.698 95.3751 338.205 -7.57981 452.58 -48.5207C466.859 -53.6323 481.572 -57.7794 496.623 -60.7209C632.224 -79.6241 789.34 -55.8987 889.774 38.762C902.316 50.5765 913.894 63.5483 923.494 77.5328C985.144 171.808 1029.38 289.904 1018.53 402.311C1016.93 418.273 1014.23 434.09 1009.6 448.508C971.444 551.126 904.873 654.177 811.385 712.43C798.023 720.724 784.13 728.15 769.658 734.516C754.366 741.219 738.447 745.558 721.563 747.005C642.933 754.239 566.715 764.847 486.637 751.345C407.042 738.325 339.025 695.407 296.236 629.342C286.878 616.274 277.712 604.411 268.884 592.5C207.041 510.185 166.81 410.557 178.484 309.338C180.365 293.328 183.549 277.222 188.566 261.791C194.982 244.431 202.893 227.119 210.032 210.482Z" stroke="#F89BA5" stroke-width="2" stroke-dasharray="0,0,0,0,0,2630.647216796875"><animate attributeType="XML" attributeName="stroke-dasharray" repeatCount="indefinite" dur="5.358523009123057s" values="0,0,0,0,0,2630.647216796875; 0,0,0,1867.7595239257812,762.8876928710937,0; 0,0,381.44384643554685,2249.203370361328,0,0; 0,1315.3236083984375,0,1315.3236083984375,0,0" keyTimes="0; 0.5; 0.645; 1"></animate></path>
<path d="M210.032 210.482C250.698 95.3751 338.205 -7.57981 452.58 -48.5207C466.859 -53.6323 481.572 -57.7794 496.623 -60.7209C632.224 -79.6241 789.34 -55.8987 889.774 38.762C902.316 50.5765 913.894 63.5483 923.494 77.5328C985.144 171.808 1029.38 289.904 1018.53 402.311C1016.93 418.273 1014.23 434.09 1009.6 448.508C971.444 551.126 904.873 654.177 811.385 712.43C798.023 720.724 784.13 728.15 769.658 734.516C754.366 741.219 738.447 745.558 721.563 747.005C642.933 754.239 566.715 764.847 486.637 751.345C407.042 738.325 339.025 695.407 296.236 629.342C286.878 616.274 277.712 604.411 268.884 592.5C207.041 510.185 166.81 410.557 178.484 309.338C180.365 293.328 183.549 277.222 188.566 261.791C194.982 244.431 202.893 227.119 210.032 210.482Z" stroke="url(#paint15_radial_230_3897)" stroke-width="2" stroke-dasharray="0,0,0,0,0,2630.647216796875"><animate attributeType="XML" attributeName="stroke-dasharray" repeatCount="indefinite" dur="5.352111052961184s" values="0,0,0,0,0,2630.647216796875; 0,0,0,1867.7595239257812,762.8876928710937,0; 0,0,381.44384643554685,2249.203370361328,0,0; 0,1315.3236083984375,0,1315.3236083984375,0,0" keyTimes="0; 0.5; 0.645; 1"></animate></path>
<path d="M166.279 301.671C171.151 214.147 209.26 129.758 273.949 70.2512C286.492 57.5205 296.863 45.5614 307.621 33.8915C329.135 10.6483 352.532 -11.2929 377.616 -31.7875C388.711 -40.7086 400.24 -48.6653 412.107 -55.6576C423.974 -62.6016 436.179 -68.5812 448.046 -72.3425C600.965 -103.591 796.334 -103.591 904.149 27.5262C913.46 37.5082 921.998 47.9725 929.958 58.7743C937.917 69.6244 945.298 80.812 952.099 92.2889C954.511 98.4614 958.371 104.248 960.3 110.999C973.807 160.186 993.585 205.033 1014.81 250.844C1062.09 355.487 1041.82 476.043 974.675 565.158C964.786 579.866 956.2 593.465 947.131 606.533C879.789 682.387 792.958 741.218 694.549 772.563C681.283 776.758 667.969 779.845 654.607 781.918C641.244 784.04 627.834 785.197 614.472 785.487C568.644 771.55 525.229 747.439 477.472 745.51C348.672 740.206 217.943 652.441 206.221 518.431C202.555 507.629 199.034 496.827 195.753 485.977C182.536 442.577 172.888 398.019 167.678 353.124C166.086 336.584 165.507 319.368 166.279 301.671Z" stroke="#F89BA5" stroke-width="2" stroke-dasharray="0,0,0,0,0,2750.716796875"><animate attributeType="XML" attributeName="stroke-dasharray" repeatCount="indefinite" dur="5.516152078346455s" values="0,0,0,0,0,2750.716796875; 0,0,0,1953.00892578125,797.70787109375,0; 0,0,398.853935546875,2351.862861328125,0,0; 0,1375.3583984375,0,1375.3583984375,0,0" keyTimes="0; 0.5; 0.645; 1"></animate></path>
<path d="M166.279 301.671C171.151 214.147 209.26 129.758 273.949 70.2512C286.492 57.5205 296.863 45.5614 307.621 33.8915C329.135 10.6483 352.532 -11.2929 377.616 -31.7875C388.711 -40.7086 400.24 -48.6653 412.107 -55.6576C423.974 -62.6016 436.179 -68.5812 448.046 -72.3425C600.965 -103.591 796.334 -103.591 904.149 27.5262C913.46 37.5082 921.998 47.9725 929.958 58.7743C937.917 69.6244 945.298 80.812 952.099 92.2889C954.511 98.4614 958.371 104.248 960.3 110.999C973.807 160.186 993.585 205.033 1014.81 250.844C1062.09 355.487 1041.82 476.043 974.675 565.158C964.786 579.866 956.2 593.465 947.131 606.533C879.789 682.387 792.958 741.218 694.549 772.563C681.283 776.758 667.969 779.845 654.607 781.918C641.244 784.04 627.834 785.197 614.472 785.487C568.644 771.55 525.229 747.439 477.472 745.51C348.672 740.206 217.943 652.441 206.221 518.431C202.555 507.629 199.034 496.827 195.753 485.977C182.536 442.577 172.888 398.019 167.678 353.124C166.086 336.584 165.507 319.368 166.279 301.671Z" stroke="url(#paint16_radial_230_3897)" stroke-width="2" stroke-dasharray="0,0,0,0,0,2750.716796875"><animate attributeType="XML" attributeName="stroke-dasharray" repeatCount="indefinite" dur="5.330716857881117s" values="0,0,0,0,0,2750.716796875; 0,0,0,1953.00892578125,797.70787109375,0; 0,0,398.853935546875,2351.862861328125,0,0; 0,1375.3583984375,0,1375.3583984375,0,0" keyTimes="0; 0.5; 0.645; 1"></animate></path>
<path d="M144.282 353.896C144.137 316.379 149.444 279.248 160.346 243.515C164.253 226.926 169.608 212.267 175.493 197.8C182.247 184.201 194.306 174.557 204.919 163.465C218.426 148.516 228.991 135.689 236.95 117.268C243.173 102.705 250.409 87.7562 257.597 74.2057C264.736 60.7034 272.599 47.2975 281.089 34.3257C332.078 -43.6018 407.187 -107.111 504.583 -94.1871C519.923 -97.4663 535.504 -99.9738 550.217 -100.649C699.374 -109.425 863.388 -63.6141 951.907 64.8023C962.23 77.6777 970.576 90.8424 978.342 104.296C1033.29 196.016 1063.24 308.133 1049.11 414.27C1047.08 429.412 1044.19 444.458 1040.28 459.31C997.541 583.724 910.903 704.28 790.064 759.881C774.965 766.825 759.335 772.708 743.271 777.386C587.94 804.824 394.018 808.2 287.312 671.007C277.471 658.999 268.016 648.198 258.996 637.155C204.774 571.09 164.543 492.873 149.058 408.966C146.115 391.124 144.475 372.751 144.282 353.896Z" stroke="#F89BA5" stroke-width="2" stroke-dasharray="0,0,0,0,0,2846.04931640625"><animate attributeType="XML" attributeName="stroke-dasharray" repeatCount="indefinite" dur="5.503391396427989s" values="0,0,0,0,0,2846.04931640625; 0,0,0,2020.6950146484373,825.3543017578124,0; 0,0,412.6771508789062,2433.372165527344,0,0; 0,1423.024658203125,0,1423.024658203125,0,0" keyTimes="0; 0.5; 0.645; 1"></animate></path>
<path d="M144.282 353.896C144.137 316.379 149.444 279.248 160.346 243.515C164.253 226.926 169.608 212.267 175.493 197.8C182.247 184.201 194.306 174.557 204.919 163.465C218.426 148.516 228.991 135.689 236.95 117.268C243.173 102.705 250.409 87.7562 257.597 74.2057C264.736 60.7034 272.599 47.2975 281.089 34.3257C332.078 -43.6018 407.187 -107.111 504.583 -94.1871C519.923 -97.4663 535.504 -99.9738 550.217 -100.649C699.374 -109.425 863.388 -63.6141 951.907 64.8023C962.23 77.6777 970.576 90.8424 978.342 104.296C1033.29 196.016 1063.24 308.133 1049.11 414.27C1047.08 429.412 1044.19 444.458 1040.28 459.31C997.541 583.724 910.903 704.28 790.064 759.881C774.965 766.825 759.335 772.708 743.271 777.386C587.94 804.824 394.018 808.2 287.312 671.007C277.471 658.999 268.016 648.198 258.996 637.155C204.774 571.09 164.543 492.873 149.058 408.966C146.115 391.124 144.475 372.751 144.282 353.896Z" stroke="url(#paint17_radial_230_3897)" stroke-width="2" stroke-dasharray="0,0,0,0,0,2846.04931640625"><animate attributeType="XML" attributeName="stroke-dasharray" repeatCount="indefinite" dur="5.319381218797519s" values="0,0,0,0,0,2846.04931640625; 0,0,0,2020.6950146484373,825.3543017578124,0; 0,0,412.6771508789062,2433.372165527344,0,0; 0,1423.024658203125,0,1423.024658203125,0,0" keyTimes="0; 0.5; 0.645; 1"></animate></path>
<path d="M149.106 419.575C112.782 382.926 91.5562 327.47 108.922 276.836C116.158 256.583 137.384 245.974 145.584 226.685C158.609 193.894 169.704 160.138 186.588 129.324C191.991 119.294 196.188 109.504 200.77 100.631C226.144 49.2263 266.183 6.30831 318.282 -20.6963C363.144 -43.843 405.113 -66.5076 449.01 -91.1011C484.225 -110.872 520.887 -124.375 559.768 -129.293C570.622 -131.319 581.572 -132.669 592.764 -133.151C603.57 -133.585 614.52 -133.392 623.637 -131.56C658.852 -122.446 690.69 -106.05 726.387 -97.37C805.017 -78.081 883.648 -57.3453 931.887 12.5772C952.63 41.9929 963.243 73.8198 977.522 105.116C983.648 115.339 989.871 125.418 996.19 135.352C1021.37 175.087 1047.03 214.002 1064.16 257.981C1068.4 269.362 1072.02 279.681 1072.99 289.085C1084.81 359.297 1052 424.397 1020.65 486.122C1014.86 497.213 1010.52 509.269 1010.52 521.324C1009.55 600.891 981.574 688.656 905.404 725.45C892.476 732.539 880.416 739.049 867.246 744.112C860.493 746.523 853.257 747.97 846.503 751.345C805.5 769.67 763.049 782.208 719.007 789.634C704.583 792.238 691.896 795.662 679.161 798.796C660.154 803.57 641.052 807.766 621.708 811.238C602.412 814.71 583.454 816.976 567.294 816.156C490.979 813.552 420.067 781.243 351.084 749.416C298.986 725.305 250.312 685.136 222.189 634.213C215.146 621.482 209.598 608.125 208.054 594.14C210.708 541.095 198.648 487.086 166.569 444.216C160.925 436.019 155.088 427.821 149.106 419.575Z" stroke="#F89BA5" stroke-width="2" stroke-dasharray="0,0,0,0,0,2992.011474609375"><animate attributeType="XML" attributeName="stroke-dasharray" repeatCount="indefinite" dur="5.335023564270611s" values="0,0,0,0,0,2992.011474609375; 0,0,0,2124.328146972656,867.6833276367187,0; 0,0,433.84166381835934,2558.1698107910156,0,0; 0,1496.0057373046875,0,1496.0057373046875,0,0" keyTimes="0; 0.5; 0.645; 1"></animate></path>
<path d="M149.106 419.575C112.782 382.926 91.5562 327.47 108.922 276.836C116.158 256.583 137.384 245.974 145.584 226.685C158.609 193.894 169.704 160.138 186.588 129.324C191.991 119.294 196.188 109.504 200.77 100.631C226.144 49.2263 266.183 6.30831 318.282 -20.6963C363.144 -43.843 405.113 -66.5076 449.01 -91.1011C484.225 -110.872 520.887 -124.375 559.768 -129.293C570.622 -131.319 581.572 -132.669 592.764 -133.151C603.57 -133.585 614.52 -133.392 623.637 -131.56C658.852 -122.446 690.69 -106.05 726.387 -97.37C805.017 -78.081 883.648 -57.3453 931.887 12.5772C952.63 41.9929 963.243 73.8198 977.522 105.116C983.648 115.339 989.871 125.418 996.19 135.352C1021.37 175.087 1047.03 214.002 1064.16 257.981C1068.4 269.362 1072.02 279.681 1072.99 289.085C1084.81 359.297 1052 424.397 1020.65 486.122C1014.86 497.213 1010.52 509.269 1010.52 521.324C1009.55 600.891 981.574 688.656 905.404 725.45C892.476 732.539 880.416 739.049 867.246 744.112C860.493 746.523 853.257 747.97 846.503 751.345C805.5 769.67 763.049 782.208 719.007 789.634C704.583 792.238 691.896 795.662 679.161 798.796C660.154 803.57 641.052 807.766 621.708 811.238C602.412 814.71 583.454 816.976 567.294 816.156C490.979 813.552 420.067 781.243 351.084 749.416C298.986 725.305 250.312 685.136 222.189 634.213C215.146 621.482 209.598 608.125 208.054 594.14C210.708 541.095 198.648 487.086 166.569 444.216C160.925 436.019 155.088 427.821 149.106 419.575Z" stroke="url(#paint18_radial_230_3897)" stroke-width="2" stroke-dasharray="0,0,0,0,0,2992.011474609375"><animate attributeType="XML" attributeName="stroke-dasharray" repeatCount="indefinite" dur="5.324141986483498s" values="0,0,0,0,0,2992.011474609375; 0,0,0,2124.328146972656,867.6833276367187,0; 0,0,433.84166381835934,2558.1698107910156,0,0; 0,1496.0057373046875,0,1496.0057373046875,0,0" keyTimes="0; 0.5; 0.645; 1"></animate></path>
<path d="M92.039 554.694C84.803 534.392 86.009 513.03 89.3858 491.474C91.0742 480.721 93.6309 469.148 95.6569 458.346C105.064 400.768 126.289 348.206 137.384 288.892C157.645 181.356 196.236 73.3376 275.011 -2.32342C287.216 -13.3181 299.903 -23.7342 313.072 -33.5716C324.022 -41.7694 335.31 -49.5814 346.84 -56.9112C359.141 -64.241 371.442 -71.1851 384.708 -77.5022C442.257 -104.121 504.969 -119.552 567.68 -119.07C655.476 -119.07 749.06 -137.395 832.128 -100.022C841.969 -94.4283 850.99 -88.1112 861.458 -78.7078C964.691 35.7241 1074.68 164.96 1092.52 323.371C1092.28 338.272 1091.22 353.173 1089.44 368.025C1084.18 412.583 1072.94 456.658 1061.02 499.528C1055.86 515.2 1049.98 530.631 1043.37 545.725C1023.54 591.15 997.011 633.683 963.243 671.296C917.802 721.544 863.677 761.376 802.992 788.235C790.739 793.588 777.377 798.314 765.799 802.751C667.536 831.877 564.785 817.892 462.518 800.05C448.143 797.542 434.057 794.36 420.26 790.502C406.464 786.644 392.86 781.822 379.739 776.373C334.201 752.792 301.398 714.696 269.56 673.225C230.486 623.074 172.599 605.714 119.535 576.298C114.229 572.922 108.923 569.547 103.568 565.93C98.889 562.313 95.078 558.6 92.039 554.694Z" stroke="#F89BA5" stroke-width="2" stroke-dasharray="0,0,0,0,0,3076.240478515625"><animate attributeType="XML" attributeName="stroke-dasharray" repeatCount="indefinite" dur="5.284500323893903s" values="0,0,0,0,0,3076.240478515625; 0,0,0,2184.1307397460937,892.1097387695312,0; 0,0,446.0548693847656,2630.185609130859,0,0; 0,1538.1202392578125,0,1538.1202392578125,0,0" keyTimes="0; 0.5; 0.645; 1"></animate></path>
<path d="M92.039 554.694C84.803 534.392 86.009 513.03 89.3858 491.474C91.0742 480.721 93.6309 469.148 95.6569 458.346C105.064 400.768 126.289 348.206 137.384 288.892C157.645 181.356 196.236 73.3376 275.011 -2.32342C287.216 -13.3181 299.903 -23.7342 313.072 -33.5716C324.022 -41.7694 335.31 -49.5814 346.84 -56.9112C359.141 -64.241 371.442 -71.1851 384.708 -77.5022C442.257 -104.121 504.969 -119.552 567.68 -119.07C655.476 -119.07 749.06 -137.395 832.128 -100.022C841.969 -94.4283 850.99 -88.1112 861.458 -78.7078C964.691 35.7241 1074.68 164.96 1092.52 323.371C1092.28 338.272 1091.22 353.173 1089.44 368.025C1084.18 412.583 1072.94 456.658 1061.02 499.528C1055.86 515.2 1049.98 530.631 1043.37 545.725C1023.54 591.15 997.011 633.683 963.243 671.296C917.802 721.544 863.677 761.376 802.992 788.235C790.739 793.588 777.377 798.314 765.799 802.751C667.536 831.877 564.785 817.892 462.518 800.05C448.143 797.542 434.057 794.36 420.26 790.502C406.464 786.644 392.86 781.822 379.739 776.373C334.201 752.792 301.398 714.696 269.56 673.225C230.486 623.074 172.599 605.714 119.535 576.298C114.229 572.922 108.923 569.547 103.568 565.93C98.889 562.313 95.078 558.6 92.039 554.694Z" stroke="url(#paint19_radial_230_3897)" stroke-width="2" stroke-dasharray="0,0,0,0,0,3076.240478515625"><animate attributeType="XML" attributeName="stroke-dasharray" repeatCount="indefinite" dur="5.476223018540466s" values="0,0,0,0,0,3076.240478515625; 0,0,0,2184.1307397460937,892.1097387695312,0; 0,0,446.0548693847656,2630.185609130859,0,0; 0,1538.1202392578125,0,1538.1202392578125,0,0" keyTimes="0; 0.5; 0.645; 1"></animate></path>
<path d="M176.602 596.551C163.916 518.431 129.183 448.991 89.6268 379.068C82.0049 365.807 76.9398 351.774 74.0937 337.404C71.2958 323.13 70.7652 308.567 72.5983 295.016C74.6725 276.354 81.4261 259.476 90.1092 242.598C101.204 222.345 118.57 207.396 126.289 186.178C156.68 97.931 204.919 10.6483 285.093 -39.6959C296.236 -46.8328 307.766 -53.2464 319.488 -59.3224C342.98 -71.5709 367.486 -82.6621 391.123 -95.9233C402.701 -102.192 414.278 -108.027 425.856 -114.778C437.964 -121.867 450.41 -128.281 463.048 -133.923C477.761 -140.529 492.812 -146.123 508.056 -150.656C584.178 -173.32 665.22 -169.704 738.013 -134.598C753.353 -130.258 768.452 -125.339 783.262 -119.745C842.403 -97.4664 897.155 -64.2411 942.404 -19.4907C954.222 -8.44776 965.51 3.17387 976.316 15.4224C987.122 27.6709 992.814 40.1123 998.603 52.6983C1003.28 64.1753 1009.07 75.2664 1014.38 86.8398C1052 166.889 1105.55 240.187 1113.27 330.363C1114.33 342.805 1114.57 355.198 1113.89 367.495C1109.41 404.144 1089.15 436.453 1077.09 470.691C1072.02 484.772 1066.96 499.19 1061.94 513.705C1041.39 570.993 1021.61 629.825 986.977 680.362C978.487 692.562 969.176 704.136 958.901 714.793C938.303 736.107 913.798 753.949 883.793 766.68C870.286 771.551 856.972 776.18 844.719 781.533C783.985 808.875 719.151 825.897 651.616 841.57C602.894 853.143 556.585 855.554 507.38 847.839C464.447 841.087 426.82 824.692 389.869 804.872C375.976 798.7 362.421 791.9 349.251 784.329C322.961 769.236 298.214 751.008 275.59 729.501C261.311 717.397 247.659 704.425 234.683 690.633C221.803 676.842 210.418 662.568 199.999 647.812C189.531 632.959 179.497 617.48 176.602 596.551Z" stroke="#F89BA5" stroke-width="2" stroke-dasharray="0,0,0,0,0,3178.145263671875"><animate attributeType="XML" attributeName="stroke-dasharray" repeatCount="indefinite" dur="5.405921001451302s" values="0,0,0,0,0,3178.145263671875; 0,0,0,2256.483137207031,921.6621264648437,0; 0,0,460.83106323242185,2717.314200439453,0,0; 0,1589.0726318359375,0,1589.0726318359375,0,0" keyTimes="0; 0.5; 0.645; 1"></animate></path>
<path d="M176.602 596.551C163.916 518.431 129.183 448.991 89.6268 379.068C82.0049 365.807 76.9398 351.774 74.0937 337.404C71.2958 323.13 70.7652 308.567 72.5983 295.016C74.6725 276.354 81.4261 259.476 90.1092 242.598C101.204 222.345 118.57 207.396 126.289 186.178C156.68 97.931 204.919 10.6483 285.093 -39.6959C296.236 -46.8328 307.766 -53.2464 319.488 -59.3224C342.98 -71.5709 367.486 -82.6621 391.123 -95.9233C402.701 -102.192 414.278 -108.027 425.856 -114.778C437.964 -121.867 450.41 -128.281 463.048 -133.923C477.761 -140.529 492.812 -146.123 508.056 -150.656C584.178 -173.32 665.22 -169.704 738.013 -134.598C753.353 -130.258 768.452 -125.339 783.262 -119.745C842.403 -97.4664 897.155 -64.2411 942.404 -19.4907C954.222 -8.44776 965.51 3.17387 976.316 15.4224C987.122 27.6709 992.814 40.1123 998.603 52.6983C1003.28 64.1753 1009.07 75.2664 1014.38 86.8398C1052 166.889 1105.55 240.187 1113.27 330.363C1114.33 342.805 1114.57 355.198 1113.89 367.495C1109.41 404.144 1089.15 436.453 1077.09 470.691C1072.02 484.772 1066.96 499.19 1061.94 513.705C1041.39 570.993 1021.61 629.825 986.977 680.362C978.487 692.562 969.176 704.136 958.901 714.793C938.303 736.107 913.798 753.949 883.793 766.68C870.286 771.551 856.972 776.18 844.719 781.533C783.985 808.875 719.151 825.897 651.616 841.57C602.894 853.143 556.585 855.554 507.38 847.839C464.447 841.087 426.82 824.692 389.869 804.872C375.976 798.7 362.421 791.9 349.251 784.329C322.961 769.236 298.214 751.008 275.59 729.501C261.311 717.397 247.659 704.425 234.683 690.633C221.803 676.842 210.418 662.568 199.999 647.812C189.531 632.959 179.497 617.48 176.602 596.551Z" stroke="url(#paint20_radial_230_3897)" stroke-width="2" stroke-dasharray="0,0,0,0,0,3178.145263671875"><animate attributeType="XML" attributeName="stroke-dasharray" repeatCount="indefinite" dur="5.288287990174007s" values="0,0,0,0,0,3178.145263671875; 0,0,0,2256.483137207031,921.6621264648437,0; 0,0,460.83106323242185,2717.314200439453,0,0; 0,1589.0726318359375,0,1589.0726318359375,0,0" keyTimes="0; 0.5; 0.645; 1"></animate></path>
</g>
<defs>
<radialGradient id="paint0_radial_230_3897" cx="0" cy="0" r="1" gradientUnits="userSpaceOnUse" gradientTransform="translate(608.513 340.182) rotate(90) scale(188.785 180.926)">
<stop offset="0.958333" stop-color="#00F0FF" stop-opacity="0.54"></stop>
<stop offset="1" stop-color="#0085FF" stop-opacity="0"></stop>
</radialGradient>
<radialGradient id="paint1_radial_230_3897" cx="0" cy="0" r="1" gradientUnits="userSpaceOnUse" gradientTransform="translate(600.126 349.091) rotate(90) scale(197.326 200.98)">
<stop offset="0.958333" stop-color="#00F0FF" stop-opacity="0.54"></stop>
<stop offset="1" stop-color="#0085FF" stop-opacity="0"></stop>
</radialGradient>
<radialGradient id="paint2_radial_230_3897" cx="0" cy="0" r="1" gradientUnits="userSpaceOnUse" gradientTransform="translate(605.304 333.167) rotate(90) scale(231.729 225.35)">
<stop offset="0.958333" stop-color="#00F0FF" stop-opacity="0.54"></stop>
<stop offset="1" stop-color="#0085FF" stop-opacity="0"></stop>
</radialGradient>
<radialGradient id="paint3_radial_230_3897" cx="0" cy="0" r="1" gradientUnits="userSpaceOnUse" gradientTransform="translate(598.965 346.519) rotate(90) scale(224.597 231.871)">
<stop offset="0.958333" stop-color="#00F0FF" stop-opacity="0.54"></stop>
<stop offset="1" stop-color="#0085FF" stop-opacity="0"></stop>
</radialGradient>
<radialGradient id="paint4_radial_230_3897" cx="0" cy="0" r="1" gradientUnits="userSpaceOnUse" gradientTransform="translate(593.56 346.434) rotate(90) scale(238.56 241.029)">
<stop offset="0.958333" stop-color="#00F0FF" stop-opacity="0.54"></stop>
<stop offset="1" stop-color="#0085FF" stop-opacity="0"></stop>
</radialGradient>
<radialGradient id="paint5_radial_230_3897" cx="0" cy="0" r="1" gradientUnits="userSpaceOnUse" gradientTransform="translate(598.716 345.173) rotate(90) scale(250.659 261.887)">
<stop offset="0.958333" stop-color="#00F0FF" stop-opacity="0.54"></stop>
<stop offset="1" stop-color="#0085FF" stop-opacity="0"></stop>
</radialGradient>
<radialGradient id="paint6_radial_230_3897" cx="0" cy="0" r="1" gradientUnits="userSpaceOnUse" gradientTransform="translate(596.657 346.537) rotate(90) scale(266.38 277.672)">
<stop offset="0.958333" stop-color="#00F0FF" stop-opacity="0.54"></stop>
<stop offset="1" stop-color="#0085FF" stop-opacity="0"></stop>
</radialGradient>
<radialGradient id="paint7_radial_230_3897" cx="0" cy="0" r="1" gradientUnits="userSpaceOnUse" gradientTransform="translate(612.169 349.335) rotate(90) scale(295.873 278.707)">
<stop offset="0.958333" stop-color="#00F0FF" stop-opacity="0.54"></stop>
<stop offset="1" stop-color="#0085FF" stop-opacity="0"></stop>
</radialGradient>
<radialGradient id="paint8_radial_230_3897" cx="0" cy="0" r="1" gradientUnits="userSpaceOnUse" gradientTransform="translate(596.162 346.158) rotate(90) scale(295.003 308.688)">
<stop offset="0.958333" stop-color="#00F0FF" stop-opacity="0.54"></stop>
<stop offset="1" stop-color="#0085FF" stop-opacity="0"></stop>
</radialGradient>
<radialGradient id="paint9_radial_230_3897" cx="0" cy="0" r="1" gradientUnits="userSpaceOnUse" gradientTransform="translate(597.331 346.838) rotate(90) scale(310.535 323.65)">
<stop offset="0.958333" stop-color="#00F0FF" stop-opacity="0.54"></stop>
<stop offset="1" stop-color="#0085FF" stop-opacity="0"></stop>
</radialGradient>
<radialGradient id="paint10_radial_230_3897" cx="0" cy="0" r="1" gradientUnits="userSpaceOnUse" gradientTransform="translate(609.272 342.433) rotate(90) scale(341.547 351.001)">
<stop offset="0.958333" stop-color="#00F0FF" stop-opacity="0.54"></stop>
<stop offset="1" stop-color="#0085FF" stop-opacity="0"></stop>
</radialGradient>
<radialGradient id="paint11_radial_230_3897" cx="0" cy="0" r="1" gradientUnits="userSpaceOnUse" gradientTransform="translate(598.809 348.36) rotate(90) scale(348.945 351.082)">
<stop offset="0.958333" stop-color="#00F0FF" stop-opacity="0.54"></stop>
<stop offset="1" stop-color="#0085FF" stop-opacity="0"></stop>
</radialGradient>
<radialGradient id="paint12_radial_230_3897" cx="0" cy="0" r="1" gradientUnits="userSpaceOnUse" gradientTransform="translate(598.126 346.592) rotate(90) scale(359.717 374.142)">
<stop offset="0.958333" stop-color="#00F0FF" stop-opacity="0.54"></stop>
<stop offset="1" stop-color="#0085FF" stop-opacity="0"></stop>
</radialGradient>
<radialGradient id="paint13_radial_230_3897" cx="0" cy="0" r="1" gradientUnits="userSpaceOnUse" gradientTransform="translate(598.225 347.917) rotate(90) scale(377.731 390.248)">
<stop offset="0.958333" stop-color="#00F0FF" stop-opacity="0.54"></stop>
<stop offset="1" stop-color="#0085FF" stop-opacity="0"></stop>
</radialGradient>
<radialGradient id="paint14_radial_230_3897" cx="0" cy="0" r="1" gradientUnits="userSpaceOnUse" gradientTransform="translate(604.219 345.378) rotate(90) scale(402.899 405.425)">
<stop offset="0.958333" stop-color="#00F0FF" stop-opacity="0.54"></stop>
<stop offset="1" stop-color="#0085FF" stop-opacity="0"></stop>
</radialGradient>
<radialGradient id="paint15_radial_230_3897" cx="0" cy="0" r="1" gradientUnits="userSpaceOnUse" gradientTransform="translate(598.318 345.556) rotate(90) scale(412.285 421.849)">
<stop offset="0.958333" stop-color="#00F0FF" stop-opacity="0.54"></stop>
<stop offset="1" stop-color="#0085FF" stop-opacity="0"></stop>
</radialGradient>
<radialGradient id="paint16_radial_230_3897" cx="0" cy="0" r="1" gradientUnits="userSpaceOnUse" gradientTransform="translate(603.267 348.003) rotate(90) scale(437.484 437.327)">
<stop offset="0.958333" stop-color="#00F0FF" stop-opacity="0.54"></stop>
<stop offset="1" stop-color="#0085FF" stop-opacity="0"></stop>
</radialGradient>
<radialGradient id="paint17_radial_230_3897" cx="0" cy="0" r="1" gradientUnits="userSpaceOnUse" gradientTransform="translate(598.435 345.412) rotate(90) scale(447.105 454.156)">
<stop offset="0.958333" stop-color="#00F0FF" stop-opacity="0.54"></stop>
<stop offset="1" stop-color="#0085FF" stop-opacity="0"></stop>
</radialGradient>
<radialGradient id="paint18_radial_230_3897" cx="0" cy="0" r="1" gradientUnits="userSpaceOnUse" gradientTransform="translate(589.108 341.489) rotate(90) scale(474.835 486.347)">
<stop offset="0.958333" stop-color="#00F0FF" stop-opacity="0.54"></stop>
<stop offset="1" stop-color="#0085FF" stop-opacity="0"></stop>
</radialGradient>
<radialGradient id="paint19_radial_230_3897" cx="0" cy="0" r="1" gradientUnits="userSpaceOnUse" gradientTransform="translate(589.619 347.991) rotate(90) scale(471.553 502.906)">
<stop offset="0.958333" stop-color="#00F0FF" stop-opacity="0.54"></stop>
<stop offset="1" stop-color="#0085FF" stop-opacity="0"></stop>
</radialGradient>
<radialGradient id="paint20_radial_230_3897" cx="0" cy="0" r="1" gradientUnits="userSpaceOnUse" gradientTransform="translate(592.9 343.69) rotate(90) scale(508.612 521.373)">
<stop offset="0.958333" stop-color="#00F0FF" stop-opacity="0.54"></stop>
<stop offset="1" stop-color="#0085FF" stop-opacity="0"></stop>
</radialGradient>
<clipPath id="clip0_230_3897">
<rect width="1200" height="693.571" fill="white" stroke-dasharray="0,0,0,0,0,3787.14208984375"><animate attributeType="XML" attributeName="stroke-dasharray" repeatCount="indefinite" dur="5.41344440696381s" values="0,0,0,0,0,3787.14208984375; 0,0,0,2688.870883789062,1098.2712060546874,0; 0,0,549.1356030273437,3238.0064868164063,0,0; 0,1893.571044921875,0,1893.571044921875,0,0" keyTimes="0; 0.5; 0.645; 1"></animate></rect>
</clipPath>
</defs>
<setting_name>pattern_06</setting_name><setting>{"type":"shift","speed":9,"random":0.95,"rupture":29,"shift":1}</setting></svg>