<?xml version="1.0" standalone="no"?>
<svg id="pattern_04" width="1200" height="694" viewBox="0 0 1200 694" fill="none" xmlns="http://www.w3.org/2000/svg" style="max-width: 100%; max-height: 100%;">
<g clip-path="url(#clip0_2_58)">
<path d="M1200 0H0V693.571H1200V0Z" fill="#221E1E" stroke-dasharray="0,0,908.9141015624999,2878.22798828125"><animate attributeType="XML" attributeName="stroke-dasharray" repeatCount="indefinite" dur="4.8011946223330355s" values="0,0,908.9141015624999,2878.22798828125; 
          0,2878.22798828125,908.9141015624999,0; 
          908.9141015624999,2878.22798828125,0,0" keyTimes="0; 0.76; 1"></animate></path>
<path d="M42.1191 51.6688H43.6844L43.4291 49.2414L42.1191 51.6688ZM43.0147 47.8309H44.4712L45.3459 54H43.948L43.8183 52.7319H41.5457L40.8509 54H39.5033L43.0147 47.8309ZM48.5016 48.9023L48.15 50.5597H49.6107C49.9009 50.5597 50.1255 50.5262 50.2845 50.4593C50.5663 50.3421 50.7449 50.1105 50.8202 49.7645C50.8984 49.3906 50.8272 49.1395 50.6068 49.0112C50.4812 48.9386 50.2789 48.9023 49.9999 48.9023H48.5016ZM51.9628 48.421C52.0633 48.5773 52.1316 48.7503 52.1679 48.94C52.207 49.1297 52.2014 49.346 52.1512 49.5887C52.087 49.8817 51.9503 50.1705 51.741 50.4551C51.5345 50.7369 51.2485 50.9364 50.883 51.0536C51.1425 51.168 51.3085 51.3312 51.3811 51.5432C51.4564 51.7525 51.448 52.0734 51.356 52.5059L51.2681 52.9202C51.2095 53.202 51.1802 53.3931 51.1802 53.4936C51.1802 53.6526 51.2332 53.7698 51.3392 53.8451L51.3099 54H49.8911C49.88 53.8633 49.8744 53.7531 49.8744 53.6694C49.8772 53.4964 49.8967 53.3192 49.933 53.1378L50.046 52.5645C50.1241 52.171 50.1074 51.9088 49.9957 51.7776C49.8869 51.6465 49.6428 51.5809 49.2633 51.5809H47.9324L47.4218 54H46.162L47.472 47.8309H50.498C50.9277 47.8393 51.2485 47.8923 51.4606 47.99C51.6726 48.0876 51.8401 48.2313 51.9628 48.421ZM58.1193 47.8309L57.885 48.9233H56.0393L54.9637 54H53.6662L54.7418 48.9233H52.8878L53.1221 47.8309H58.1193Z" fill="white" stroke-dasharray="0,0,20.790276489257813,65.83587554931641"><animate attributeType="XML" attributeName="stroke-dasharray" repeatCount="indefinite" dur="4.7512995680438115s" values="0,0,20.790276489257813,65.83587554931641; 
          0,65.83587554931641,20.790276489257813,0; 
          20.790276489257813,65.83587554931641,0,0" keyTimes="0; 0.76; 1"></animate></path>
<path d="M79.3395 983.048C79.3395 983.048 -40.3805 448.838 235.129 436.028C385.999 429.028 354.319 623.028 540.959 753.518C726.729 883.358 888.279 863.668 971.109 983.518" stroke="white" stroke-width="3" stroke-miterlimit="10" stroke-dasharray="0,0,382.380791015625,1210.8725048828126"><animate attributeType="XML" attributeName="stroke-dasharray" repeatCount="indefinite" dur="4.883597515285664s" values="0,0,382.380791015625,1210.8725048828126; 
          0,1210.8725048828126,382.380791015625,0; 
          382.380791015625,1210.8725048828126,0,0" keyTimes="0; 0.76; 1"></animate></path>
<g opacity="0.99">
<path d="M136.757 1026.02C136.757 1026.02 -29.0672 504.281 244.278 467.508C393.964 447.385 379.313 643.408 576.615 757.135C772.995 870.29 932.214 836.595 1025.17 948.77" stroke="white" stroke-width="3" stroke-miterlimit="10" stroke-dasharray="0,0,382.37912109375,1210.867216796875"><animate attributeType="XML" attributeName="stroke-dasharray" repeatCount="indefinite" dur="4.80861567584935s" values="0,0,382.37912109375,1210.867216796875; 
          0,1210.867216796875,382.37912109375,0; 
          382.37912109375,1210.867216796875,0,0" keyTimes="0; 0.76; 1"></animate></path>
</g>
<g opacity="0.98">
<path d="M197.701 1063.83C197.701 1063.83 -12.9649 558.526 256.135 498.069C403.498 464.977 405.987 661.531 612.45 757.629C817.945 853.238 973.621 805.794 1076 909.44" stroke="white" stroke-width="3" stroke-miterlimit="10" stroke-dasharray="0,0,382.37982421875,1210.869443359375"><animate attributeType="XML" attributeName="stroke-dasharray" repeatCount="indefinite" dur="4.986863978936677s" values="0,0,382.37982421875,1210.869443359375; 
          0,1210.869443359375,382.37982421875,0; 
          382.37982421875,1210.869443359375,0,0" keyTimes="0; 0.76; 1"></animate></path>
</g>
<g opacity="0.9">
<path d="M261.709 1096.18C261.709 1096.18 7.8043 611.159 270.611 527.478C414.529 481.669 434.139 677.258 648.193 754.996C861.238 832.331 1012.19 771.499 1123.21 865.828" stroke="white" stroke-width="3" stroke-miterlimit="10" stroke-dasharray="0,0,382.38014648437496,1210.8704638671875"><animate attributeType="XML" attributeName="stroke-dasharray" repeatCount="indefinite" dur="4.9229441135620995s" values="0,0,382.38014648437496,1210.8704638671875; 
          0,1210.8704638671875,382.38014648437496,0; 
          382.38014648437496,1210.8704638671875,0,0" keyTimes="0; 0.76; 1"></animate></path>
</g>
<g opacity="0.84">
<path d="M328.292 1122.83C328.292 1122.83 33.0817 661.786 287.595 555.519C426.972 497.341 463.555 690.476 683.569 749.262C902.544 807.735 1047.62 733.979 1166.44 818.271" stroke="white" stroke-width="3" stroke-miterlimit="10" stroke-dasharray="0,0,382.379619140625,1210.8687939453125"><animate attributeType="XML" attributeName="stroke-dasharray" repeatCount="indefinite" dur="4.82943058232302s" values="0,0,382.379619140625,1210.8687939453125; 
          0,1210.8687939453125,382.379619140625,0; 
          382.379619140625,1210.8687939453125,0,0" keyTimes="0; 0.76; 1"></animate></path>
</g>
<g opacity="0.76">
<path d="M396.945 1143.58C396.945 1143.58 62.6753 710.013 306.958 581.968C440.735 511.864 494.011 701.076 718.312 740.462C941.549 779.628 1079.64 693.508 1205.36 767.124" stroke="white" stroke-width="3" stroke-miterlimit="10" stroke-dasharray="0,0,382.381083984375,1210.8734326171875"><animate attributeType="XML" attributeName="stroke-dasharray" repeatCount="indefinite" dur="4.820082564786296s" values="0,0,382.381083984375,1210.8734326171875; 
          0,1210.8734326171875,382.381083984375,0; 
          382.381083984375,1210.8734326171875,0,0" keyTimes="0; 0.76; 1"></animate></path>
</g>
<g opacity="0.68">
<path d="M467.145 1158.26C467.145 1158.26 96.3599 755.479 328.554 606.63C455.711 525.133 525.275 708.982 752.155 728.67C977.957 748.23 1108.02 650.403 1239.68 712.781" stroke="white" stroke-width="3" stroke-miterlimit="10" stroke-dasharray="0,0,382.38205078125,1210.876494140625"><animate attributeType="XML" attributeName="stroke-dasharray" repeatCount="indefinite" dur="4.909362218078136s" values="0,0,382.38205078125,1210.876494140625; 
          0,1210.876494140625,382.38205078125,0; 
          382.38205078125,1210.876494140625,0,0" keyTimes="0; 0.76; 1"></animate></path>
</g>
<g opacity="0.64">
<path d="M538.358 1166.77C538.358 1166.77 133.879 797.837 352.216 629.318C471.786 537.048 557.11 714.135 784.842 713.974C1011.49 713.779 1132.53 604.989 1269.12 655.655" stroke="white" stroke-width="3" stroke-miterlimit="10" stroke-dasharray="0,0,382.38070312499997,1210.8722265625"><animate attributeType="XML" attributeName="stroke-dasharray" repeatCount="indefinite" dur="4.848349913995557s" values="0,0,382.38070312499997,1210.8722265625; 
          0,1210.8722265625,382.38070312499997,0; 
          382.38070312499997,1210.8722265625,0,0" keyTimes="0; 0.76; 1"></animate></path>
</g>
<g opacity="0.56">
<path d="M610.041 1169.04C610.041 1169.04 174.947 836.761 377.766 649.854C488.839 547.514 589.272 716.49 816.124 696.482C1041.89 676.534 1152.99 557.608 1293.48 596.177" stroke="white" stroke-width="3" stroke-miterlimit="10" stroke-dasharray="0,0,382.381962890625,1210.8762158203126"><animate attributeType="XML" attributeName="stroke-dasharray" repeatCount="indefinite" dur="4.878477432309401s" values="0,0,382.381962890625,1210.8762158203126; 
          0,1210.8762158203126,382.381962890625,0; 
          382.381962890625,1210.8762158203126,0,0" keyTimes="0; 0.76; 1"></animate></path>
</g>
<g opacity="0.48">
<path d="M681.65 1165.05C681.65 1165.05 219.251 871.96 405.008 668.087C506.74 556.456 621.517 716.036 845.762 676.332C1068.93 636.783 1169.24 508.627 1312.56 534.804" stroke="white" stroke-width="3" stroke-miterlimit="10" stroke-dasharray="0,0,382.3817578125,1210.87556640625"><animate attributeType="XML" attributeName="stroke-dasharray" repeatCount="indefinite" dur="4.780934154124682s" values="0,0,382.3817578125,1210.87556640625; 
          0,1210.87556640625,382.3817578125,0; 
          382.3817578125,1210.87556640625,0,0" keyTimes="0; 0.76; 1"></animate></path>
</g>
<g opacity="0.4">
<path d="M752.638 1154.84C752.638 1154.84 266.455 903.165 433.737 683.878C525.352 563.806 653.601 712.775 873.532 653.678C1092.41 594.829 1181.16 458.418 1326.22 472.005" stroke="white" stroke-width="3" stroke-miterlimit="10" stroke-dasharray="0,0,382.381787109375,1210.8756591796875"><animate attributeType="XML" attributeName="stroke-dasharray" repeatCount="indefinite" dur="4.904548347274171s" values="0,0,382.381787109375,1210.8756591796875; 
          0,1210.8756591796875,382.381787109375,0; 
          382.381787109375,1210.8756591796875,0,0" keyTimes="0; 0.76; 1"></animate></path>
</g>
<g opacity="0.32">
<path d="M822.467 1138.48C822.467 1138.48 316.2 930.136 463.732 697.104C544.534 569.504 685.278 706.728 899.222 628.688C1112.13 550.987 1188.67 407.359 1334.35 408.252" stroke="white" stroke-width="3" stroke-miterlimit="10" stroke-dasharray="0,0,382.380966796875,1210.8730615234376"><animate attributeType="XML" attributeName="stroke-dasharray" repeatCount="indefinite" dur="4.7527443919261465s" values="0,0,382.380966796875,1210.8730615234376; 
          0,1210.8730615234376,382.380966796875,0; 
          382.380966796875,1210.8730615234376,0,0" keyTimes="0; 0.76; 1"></animate></path>
</g>
<g opacity="0.24">
<path d="M890.605 1116.09C890.605 1116.09 368.106 952.669 494.767 707.666C564.14 573.508 716.309 697.944 922.636 601.554C1127.97 505.593 1191.69 355.841 1336.9 344.033" stroke="white" stroke-width="3" stroke-miterlimit="10" stroke-dasharray="0,0,382.38087890624996,1210.872783203125"><animate attributeType="XML" attributeName="stroke-dasharray" repeatCount="indefinite" dur="4.969133481024205s" values="0,0,382.38087890624996,1210.872783203125; 
          0,1210.872783203125,382.38087890624996,0; 
          382.38087890624996,1210.872783203125,0,0" keyTimes="0; 0.76; 1"></animate></path>
</g>
<path d="M1107.32 -289.068C1107.32 -289.068 1227.04 245.142 951.533 257.952C800.663 264.952 832.343 70.9522 645.703 -59.5378C459.933 -189.378 298.383 -169.688 215.553 -289.538" stroke="white" stroke-width="3" stroke-miterlimit="10" stroke-dasharray="0,0,382.3803515625,1210.87111328125"><animate attributeType="XML" attributeName="stroke-dasharray" repeatCount="indefinite" dur="4.81597169129489s" values="0,0,382.3803515625,1210.87111328125; 
          0,1210.87111328125,382.3803515625,0; 
          382.3803515625,1210.87111328125,0,0" keyTimes="0; 0.76; 1"></animate></path>
<g opacity="0.99">
<path d="M1049.91 -332.044C1049.91 -332.044 1215.73 189.699 942.384 226.473C792.698 246.595 807.35 50.5723 610.047 -63.1544C413.667 -176.309 254.448 -142.614 161.488 -254.789" stroke="white" stroke-width="3" stroke-miterlimit="10" stroke-dasharray="0,0,382.381083984375,1210.8734326171875"><animate attributeType="XML" attributeName="stroke-dasharray" repeatCount="indefinite" dur="4.794077174596316s" values="0,0,382.381083984375,1210.8734326171875; 
          0,1210.8734326171875,382.381083984375,0; 
          382.381083984375,1210.8734326171875,0,0" keyTimes="0; 0.76; 1"></animate></path>
</g>
<g opacity="0.98">
<path d="M988.961 -369.851C988.961 -369.851 1199.63 135.454 930.527 195.912C783.164 229.003 780.675 32.4496 574.211 -63.6483C368.717 -159.257 213.041 -111.813 110.657 -215.459" stroke="white" stroke-width="3" stroke-miterlimit="10" stroke-dasharray="0,0,382.38140625,1210.874453125"><animate attributeType="XML" attributeName="stroke-dasharray" repeatCount="indefinite" dur="4.9829244166826605s" values="0,0,382.38140625,1210.874453125; 
          0,1210.874453125,382.38140625,0; 
          382.38140625,1210.874453125,0,0" keyTimes="0; 0.76; 1"></animate></path>
</g>
<g opacity="0.9">
<path d="M924.953 -402.2C924.953 -402.2 1178.86 82.8214 916.051 166.502C772.133 212.312 752.523 16.7226 538.469 -61.0151C325.424 -138.35 174.475 -77.5188 63.4478 -171.847" stroke="white" stroke-width="3" stroke-miterlimit="10" stroke-dasharray="0,0,382.38093749999996,1210.87296875"><animate attributeType="XML" attributeName="stroke-dasharray" repeatCount="indefinite" dur="4.89194337499468s" values="0,0,382.38093749999996,1210.87296875; 
          0,1210.87296875,382.38093749999996,0; 
          382.38093749999996,1210.87296875,0,0" keyTimes="0; 0.76; 1"></animate></path>
</g>
<g opacity="0.84">
<path d="M858.37 -428.852C858.37 -428.852 1153.58 32.1941 899.067 138.462C759.69 196.64 723.107 3.50434 503.093 -55.2815C284.118 -113.754 139.045 -39.9982 20.2193 -124.291" stroke="white" stroke-width="3" stroke-miterlimit="10" stroke-dasharray="0,0,382.38093749999996,1210.87296875"><animate attributeType="XML" attributeName="stroke-dasharray" repeatCount="indefinite" dur="4.958577771940073s" values="0,0,382.38093749999996,1210.87296875; 
          0,1210.87296875,382.38093749999996,0; 
          382.38093749999996,1210.87296875,0,0" keyTimes="0; 0.76; 1"></animate></path>
</g>
<g opacity="0.76">
<path d="M789.716 -449.596C789.716 -449.596 1123.99 -16.033 879.703 112.012C745.927 182.117 692.651 -7.09538 468.35 -46.482C245.112 -85.6472 107.02 0.471985 -18.7005 -73.1435" stroke="white" stroke-width="3" stroke-miterlimit="10" stroke-dasharray="0,0,382.38123046875,1210.873896484375"><animate attributeType="XML" attributeName="stroke-dasharray" repeatCount="indefinite" dur="4.868429936181833s" values="0,0,382.38123046875,1210.873896484375; 
          0,1210.873896484375,382.38123046875,0; 
          382.38123046875,1210.873896484375,0,0" keyTimes="0; 0.76; 1"></animate></path>
</g>
<g opacity="0.68">
<path d="M719.516 -464.278C719.516 -464.278 1090.3 -61.4988 858.108 87.35C730.951 168.847 661.387 -15.0018 434.507 -34.6895C208.705 -54.2492 78.6437 43.5778 -53.0141 -18.8003" stroke="white" stroke-width="3" stroke-miterlimit="10" stroke-dasharray="0,0,382.38041015625,1210.871298828125"><animate attributeType="XML" attributeName="stroke-dasharray" repeatCount="indefinite" dur="4.848012917739629s" values="0,0,382.38041015625,1210.871298828125; 
          0,1210.871298828125,382.38041015625,0; 
          382.38041015625,1210.871298828125,0,0" keyTimes="0; 0.76; 1"></animate></path>
</g>
<g opacity="0.64">
<path d="M648.304 -472.787C648.304 -472.787 1052.78 -103.857 834.446 64.6626C714.876 156.932 629.553 -20.1543 401.82 -19.9932C175.173 -19.7986 54.1329 88.9918 -82.4606 38.3258" stroke="white" stroke-width="3" stroke-miterlimit="10" stroke-dasharray="0,0,382.38020507812496,1210.8706494140624"><animate attributeType="XML" attributeName="stroke-dasharray" repeatCount="indefinite" dur="4.809291396485664s" values="0,0,382.38020507812496,1210.8706494140624; 
          0,1210.8706494140624,382.38020507812496,0; 
          382.38020507812496,1210.8706494140624,0,0" keyTimes="0; 0.76; 1"></animate></path>
</g>
<g opacity="0.56">
<path d="M576.621 -475.055C576.621 -475.055 1011.72 -142.781 808.897 44.1266C697.823 146.466 597.391 -22.5099 370.539 -2.50116C144.771 17.4463 33.6731 136.372 -106.816 97.8037" stroke="white" stroke-width="3" stroke-miterlimit="10" stroke-dasharray="0,0,382.381318359375,1210.8741748046875"><animate attributeType="XML" attributeName="stroke-dasharray" repeatCount="indefinite" dur="4.816953960386011s" values="0,0,382.381318359375,1210.8741748046875; 
          0,1210.8741748046875,382.381318359375,0; 
          382.381318359375,1210.8741748046875,0,0" keyTimes="0; 0.76; 1"></animate></path>
</g>
<g opacity="0.48">
<path d="M505.013 -471.068C505.013 -471.068 967.411 -177.979 781.654 25.8938C679.922 137.525 565.145 -22.0551 340.9 17.6489C117.73 57.1974 17.4199 185.353 -125.896 159.176" stroke="white" stroke-width="3" stroke-miterlimit="10" stroke-dasharray="0,0,382.38064453124997,1210.872041015625"><animate attributeType="XML" attributeName="stroke-dasharray" repeatCount="indefinite" dur="4.895305184292588s" values="0,0,382.38064453124997,1210.872041015625; 
          0,1210.872041015625,382.38064453124997,0; 
          382.38064453124997,1210.872041015625,0,0" keyTimes="0; 0.76; 1"></animate></path>
</g>
<g opacity="0.4">
<path d="M434.024 -460.858C434.024 -460.858 920.207 -209.185 752.926 10.1022C661.311 130.175 533.062 -18.7943 313.131 40.3028C94.2568 99.1514 5.49785 235.562 -139.555 221.976" stroke="white" stroke-width="3" stroke-miterlimit="10" stroke-dasharray="0,0,382.3810546875,1210.87333984375"><animate attributeType="XML" attributeName="stroke-dasharray" repeatCount="indefinite" dur="4.987547729569392s" values="0,0,382.3810546875,1210.87333984375; 
          0,1210.87333984375,382.3810546875,0; 
          382.3810546875,1210.87333984375,0,0" keyTimes="0; 0.76; 1"></animate></path>
</g>
<g opacity="0.32">
<path d="M364.195 -444.497C364.195 -444.497 870.463 -236.156 722.93 -3.12357C642.128 124.477 501.384 -12.7477 287.44 65.2929C74.5284 142.994 -2.00381 286.621 -147.689 285.729" stroke="white" stroke-width="3" stroke-miterlimit="10" stroke-dasharray="0,0,382.38111328125,1210.873525390625"><animate attributeType="XML" attributeName="stroke-dasharray" repeatCount="indefinite" dur="4.754989695142911s" values="0,0,382.38111328125,1210.873525390625; 
          0,1210.873525390625,382.38111328125,0; 
          382.38111328125,1210.873525390625,0,0" keyTimes="0; 0.76; 1"></animate></path>
</g>
<g opacity="0.24">
<path d="M296.057 -422.113C296.057 -422.113 818.557 -258.689 691.896 -13.6851C622.523 120.472 470.354 -3.96358 264.026 92.4264C58.6964 188.388 -5.02657 338.139 -150.235 349.947" stroke="white" stroke-width="3" stroke-miterlimit="10" stroke-dasharray="0,0,382.3810546875,1210.87333984375"><animate attributeType="XML" attributeName="stroke-dasharray" repeatCount="indefinite" dur="4.903666121358326s" values="0,0,382.3810546875,1210.87333984375; 
          0,1210.87333984375,382.3810546875,0; 
          382.3810546875,1210.87333984375,0,0" keyTimes="0; 0.76; 1"></animate></path>
</g>
<path d="M486.026 170.455H491.662V201.273C491.662 204.455 490.912 207.295 489.412 209.795C487.927 212.28 485.829 214.242 483.116 215.682C480.404 217.106 477.223 217.818 473.571 217.818C469.92 217.818 466.738 217.106 464.026 215.682C461.313 214.242 459.207 212.28 457.707 209.795C456.223 207.295 455.48 204.455 455.48 201.273V170.455H461.116V200.818C461.116 203.091 461.616 205.114 462.616 206.886C463.616 208.644 465.041 210.03 466.889 211.045C468.753 212.045 470.98 212.545 473.571 212.545C476.162 212.545 478.389 212.045 480.253 211.045C482.116 210.03 483.541 208.644 484.526 206.886C485.526 205.114 486.026 203.091 486.026 200.818V170.455ZM502.918 217V170.455H508.554V212H530.19V217H502.918ZM530.185 175.455V170.455H565.094V175.455H550.457V217H544.821V175.455H530.185ZM579.429 170.455V217H573.793V170.455H579.429ZM590.73 170.455H597.457L613.276 209.091H613.821L629.639 170.455H636.366V217H631.094V181.636H630.639L616.094 217H611.003L596.457 181.636H596.003V217H590.73V170.455ZM649.577 217H643.668L660.759 170.455H666.577L683.668 217H677.759L663.849 177.818H663.486L649.577 217ZM651.759 198.818H675.577V203.818H651.759V198.818ZM682.935 175.455V170.455H717.844V175.455H703.207V217H697.571V175.455H682.935ZM726.543 217V170.455H754.634V175.455H732.179V191.182H753.179V196.182H732.179V212H754.997V217H726.543ZM379.605 294V247.455H385.241V289H406.878V294H379.605ZM415.605 294V247.455H443.696V252.455H421.241V268.182H442.241V273.182H421.241V289H444.06V294H415.605ZM455.764 294H449.855L466.946 247.455H472.764L489.855 294H483.946L470.037 254.818H469.673L455.764 294ZM457.946 275.818H481.764V280.818H457.946V275.818ZM511.469 294H497.105V247.455H512.105C516.62 247.455 520.484 248.386 523.696 250.25C526.908 252.098 529.37 254.758 531.082 258.227C532.795 261.682 533.651 265.818 533.651 270.636C533.651 275.485 532.787 279.659 531.06 283.159C529.332 286.644 526.817 289.326 523.514 291.205C520.211 293.068 516.196 294 511.469 294ZM502.741 289H511.105C514.954 289 518.143 288.258 520.673 286.773C523.204 285.288 525.09 283.174 526.332 280.432C527.575 277.689 528.196 274.424 528.196 270.636C528.196 266.879 527.582 263.644 526.355 260.932C525.128 258.205 523.295 256.114 520.855 254.659C518.416 253.189 515.378 252.455 511.741 252.455H502.741V289ZM543.105 294V247.455H571.196V252.455H548.741V268.182H569.741V273.182H548.741V289H571.56V294H543.105ZM581.355 294V247.455H597.082C600.719 247.455 603.704 248.076 606.037 249.318C608.37 250.545 610.098 252.235 611.219 254.386C612.34 256.538 612.901 258.985 612.901 261.727C612.901 264.47 612.34 266.902 611.219 269.023C610.098 271.144 608.378 272.811 606.06 274.023C603.741 275.22 600.779 275.818 597.173 275.818H584.446V270.727H596.991C599.476 270.727 601.476 270.364 602.991 269.636C604.522 268.909 605.628 267.879 606.31 266.545C607.007 265.197 607.355 263.591 607.355 261.727C607.355 259.864 607.007 258.235 606.31 256.841C605.613 255.447 604.499 254.371 602.969 253.614C601.438 252.841 599.416 252.455 596.901 252.455H586.991V294H581.355ZM603.264 273.091L614.719 294H608.173L596.901 273.091H603.264ZM622.293 294V247.455H638.565C641.808 247.455 644.482 248.015 646.588 249.136C648.694 250.242 650.262 251.735 651.293 253.614C652.323 255.477 652.838 257.545 652.838 259.818C652.838 261.818 652.482 263.47 651.77 264.773C651.073 266.076 650.149 267.106 648.997 267.864C647.861 268.621 646.626 269.182 645.293 269.545V270C646.717 270.091 648.149 270.591 649.588 271.5C651.027 272.409 652.232 273.712 653.202 275.409C654.171 277.106 654.656 279.182 654.656 281.636C654.656 283.97 654.126 286.068 653.065 287.932C652.005 289.795 650.33 291.273 648.043 292.364C645.755 293.455 642.777 294 639.111 294H622.293ZM627.929 289H639.111C642.793 289 645.406 288.288 646.952 286.864C648.512 285.424 649.293 283.682 649.293 281.636C649.293 280.061 648.891 278.606 648.088 277.273C647.285 275.924 646.141 274.848 644.656 274.045C643.171 273.227 641.414 272.818 639.384 272.818H627.929V289ZM627.929 267.909H638.384C640.08 267.909 641.611 267.576 642.974 266.909C644.353 266.242 645.444 265.303 646.247 264.091C647.065 262.879 647.474 261.455 647.474 259.818C647.474 257.773 646.762 256.038 645.338 254.614C643.914 253.174 641.656 252.455 638.565 252.455H627.929V267.909ZM703.19 270.727C703.19 275.636 702.304 279.879 700.531 283.455C698.759 287.03 696.327 289.788 693.236 291.727C690.145 293.667 686.615 294.636 682.645 294.636C678.675 294.636 675.145 293.667 672.054 291.727C668.963 289.788 666.531 287.03 664.759 283.455C662.986 279.879 662.099 275.636 662.099 270.727C662.099 265.818 662.986 261.576 664.759 258C666.531 254.424 668.963 251.667 672.054 249.727C675.145 247.788 678.675 246.818 682.645 246.818C686.615 246.818 690.145 247.788 693.236 249.727C696.327 251.667 698.759 254.424 700.531 258C702.304 261.576 703.19 265.818 703.19 270.727ZM697.736 270.727C697.736 266.697 697.062 263.295 695.713 260.523C694.38 257.75 692.569 255.652 690.281 254.227C688.009 252.803 685.463 252.091 682.645 252.091C679.827 252.091 677.274 252.803 674.986 254.227C672.713 255.652 670.902 257.75 669.554 260.523C668.221 263.295 667.554 266.697 667.554 270.727C667.554 274.758 668.221 278.159 669.554 280.932C670.902 283.705 672.713 285.803 674.986 287.227C677.274 288.652 679.827 289.364 682.645 289.364C685.463 289.364 688.009 288.652 690.281 287.227C692.569 285.803 694.38 283.705 695.713 280.932C697.062 278.159 697.736 274.758 697.736 270.727ZM712.389 294H706.48L723.571 247.455H729.389L746.48 294H740.571L726.662 254.818H726.298L712.389 294ZM714.571 275.818H738.389V280.818H714.571V275.818ZM753.73 294V247.455H769.457C773.094 247.455 776.079 248.076 778.412 249.318C780.745 250.545 782.473 252.235 783.594 254.386C784.715 256.538 785.276 258.985 785.276 261.727C785.276 264.47 784.715 266.902 783.594 269.023C782.473 271.144 780.753 272.811 778.435 274.023C776.116 275.22 773.154 275.818 769.548 275.818H756.821V270.727H769.366C771.851 270.727 773.851 270.364 775.366 269.636C776.897 268.909 778.003 267.879 778.685 266.545C779.382 265.197 779.73 263.591 779.73 261.727C779.73 259.864 779.382 258.235 778.685 256.841C777.988 255.447 776.874 254.371 775.344 253.614C773.813 252.841 771.791 252.455 769.276 252.455H759.366V294H753.73ZM775.639 273.091L787.094 294H780.548L769.276 273.091H775.639ZM809.031 294H794.668V247.455H809.668C814.183 247.455 818.046 248.386 821.259 250.25C824.471 252.098 826.933 254.758 828.645 258.227C830.357 261.682 831.213 265.818 831.213 270.636C831.213 275.485 830.349 279.659 828.622 283.159C826.895 286.644 824.38 289.326 821.077 291.205C817.774 293.068 813.759 294 809.031 294ZM800.304 289H808.668C812.516 289 815.705 288.258 818.236 286.773C820.766 285.288 822.652 283.174 823.895 280.432C825.137 277.689 825.759 274.424 825.759 270.636C825.759 266.879 825.145 263.644 823.918 260.932C822.69 258.205 820.857 256.114 818.418 254.659C815.978 253.189 812.94 252.455 809.304 252.455H800.304V289Z" fill="white" stroke-dasharray="0,0,1061.81953125,3362.428515625"><animate attributeType="XML" attributeName="stroke-dasharray" repeatCount="indefinite" dur="4.986799014061772s" values="0,0,1061.81953125,3362.428515625; 
          0,3362.428515625,1061.81953125,0; 
          1061.81953125,3362.428515625,0,0" keyTimes="0; 0.76; 1"></animate></path>
</g>
<defs>
<clipPath id="clip0_2_58">
<rect width="1200" height="694" fill="white" stroke-dasharray="0,0,909.12,2878.88"><animate attributeType="XML" attributeName="stroke-dasharray" repeatCount="indefinite" dur="4.916925751349233s" values="0,0,909.12,2878.88; 
          0,2878.88,909.12,0; 
          909.12,2878.88,0,0" keyTimes="0; 0.76; 1"></animate></rect>
</clipPath>
</defs>
<setting>{"type":"loader","speed":10,"random":0.95,"rupture":15,"shift":1}</setting></svg>